<svg id="svg" version="1.1" xmlns="http://www.w3.org/2000/svg" xmlns:xlink="http://www.w3.org/1999/xlink" width="400" height="225" viewBox="0, 0, 400,225"><g id="svgg"><path id="path0" d="M116.882 87.271 C 116.480 87.324,116.151 87.462,116.151 87.578 C 116.151 87.694,116.024 87.791,115.869 87.795 C 115.519 87.803,114.243 88.949,113.928 89.537 C 113.715 89.934,107.306 96.440,82.109 121.834 C 73.303 130.709,73.448 130.534,73.338 132.470 C 73.317 132.842,73.318 137.137,73.341 142.016 L 73.382 150.886 74.294 151.753 L 75.206 152.620 116.556 152.562 L 157.907 152.504 158.660 151.941 C 160.054 150.900,160.045 150.965,160.045 142.062 C 160.045 136.903,160.127 133.910,160.270 133.821 C 160.394 133.745,160.495 133.339,160.495 132.921 C 160.495 132.502,160.394 132.097,160.270 132.020 C 160.146 131.944,160.045 131.642,160.045 131.349 C 160.045 131.007,159.507 130.230,158.535 129.168 C 157.704 128.261,156.919 127.384,156.790 127.219 C 156.661 127.055,155.746 126.056,154.755 124.999 C 153.765 123.942,152.701 122.798,152.392 122.456 C 152.082 122.115,151.221 121.183,150.478 120.386 C 149.736 119.588,148.165 117.887,146.989 116.604 C 145.813 115.322,144.268 113.667,143.555 112.926 C 142.842 112.185,141.886 111.124,141.430 110.568 C 140.975 110.012,139.988 108.921,139.237 108.145 C 138.487 107.369,137.049 105.839,136.041 104.745 C 135.034 103.652,133.312 101.811,132.215 100.655 C 131.117 99.498,130.132 98.397,130.024 98.207 C 129.916 98.018,129.106 97.124,128.223 96.221 C 127.340 95.318,125.808 93.688,124.817 92.598 C 119.899 87.187,119.513 86.928,116.882 87.271 M118.794 99.100 C 119.135 99.502,120.095 100.518,120.926 101.357 C 121.758 102.196,122.518 103.022,122.615 103.193 C 122.712 103.364,123.652 104.410,124.705 105.517 C 125.757 106.625,127.479 108.481,128.531 109.641 C 129.584 110.801,131.186 112.509,132.093 113.436 C 132.999 114.364,133.812 115.251,133.900 115.408 C 134.068 115.707,136.754 118.616,139.514 121.487 C 140.417 122.426,141.360 123.458,141.611 123.780 C 141.862 124.103,142.794 125.142,143.684 126.090 C 144.573 127.037,146.162 128.746,147.214 129.887 C 148.267 131.028,150.012 132.887,151.093 134.017 L 153.058 136.072 153.062 141.306 L 153.067 146.539 116.714 146.539 L 80.360 146.539 80.360 141.300 L 80.360 136.061 83.005 133.438 C 84.460 131.995,85.813 130.630,86.012 130.404 C 86.211 130.179,86.565 129.832,86.800 129.634 C 87.034 129.435,94.114 122.323,102.532 113.829 C 110.951 105.335,117.914 98.381,118.006 98.377 C 118.098 98.372,118.453 98.697,118.794 99.100 " stroke="none" fill="#245c84" fill-rule="evenodd"></path><path id="path1" d="M116.151 61.902 C 116.151 62.026,115.888 62.127,115.567 62.127 C 114.699 62.127,113.276 63.320,108.121 68.374 C 106.574 69.890,105.215 71.131,105.102 71.131 C 104.989 71.131,104.896 71.283,104.896 71.469 C 104.896 71.654,104.802 71.806,104.688 71.806 C 104.573 71.806,103.284 72.971,101.823 74.395 C 100.362 75.819,99.105 76.984,99.030 76.984 C 98.956 76.984,98.759 77.237,98.593 77.546 C 98.427 77.856,98.178 78.109,98.038 78.109 C 97.899 78.109,95.966 79.877,93.743 82.037 C 91.520 84.197,88.182 87.423,86.325 89.205 C 84.468 90.987,81.733 93.619,80.248 95.055 C 78.762 96.491,77.293 97.876,76.984 98.134 C 76.384 98.634,71.063 103.726,65.936 108.708 C 64.223 110.371,62.666 111.820,62.475 111.927 C 62.284 112.034,62.127 112.211,62.127 112.321 C 62.127 112.431,61.834 112.843,61.475 113.235 C 60.384 114.430,60.197 118.852,61.237 118.852 C 61.355 118.852,61.452 118.997,61.452 119.173 C 61.452 119.350,61.730 119.703,62.071 119.959 C 62.411 120.214,62.835 120.547,63.013 120.698 C 63.551 121.157,67.370 121.231,67.810 120.790 C 68.009 120.591,68.256 120.425,68.358 120.422 C 68.594 120.414,69.803 119.318,73.720 115.558 C 75.453 113.895,78.378 111.094,80.219 109.334 C 82.061 107.574,84.796 104.949,86.297 103.501 C 87.798 102.053,89.432 100.501,89.927 100.052 C 91.255 98.848,97.712 92.656,101.541 88.914 C 103.378 87.119,105.073 85.498,105.308 85.312 C 105.723 84.985,111.760 79.240,115.183 75.914 C 117.371 73.789,116.515 73.408,122.319 79.092 C 123.693 80.438,125.479 82.130,126.289 82.853 C 127.098 83.576,128.678 85.058,129.801 86.147 C 130.923 87.235,133.746 89.949,136.075 92.178 C 138.404 94.406,141.331 97.222,142.580 98.434 C 143.829 99.647,145.176 100.913,145.574 101.248 C 145.971 101.583,147.766 103.301,149.562 105.065 C 151.358 106.829,152.869 108.272,152.920 108.272 C 152.972 108.272,154.079 109.311,155.382 110.580 C 159.859 114.941,165.364 120.134,165.942 120.540 C 167.262 121.469,170.400 122.024,170.400 121.328 C 170.400 121.204,170.595 121.103,170.834 121.103 C 171.072 121.103,171.406 120.976,171.575 120.822 C 171.744 120.667,172.074 120.432,172.309 120.299 C 173.119 119.842,173.970 117.951,173.986 116.572 C 174.015 114.159,174.024 114.170,164.187 104.710 C 161.280 101.914,154.450 95.412,153.387 94.429 C 152.986 94.057,151.601 92.741,150.310 91.503 C 149.019 90.264,146.163 87.530,143.962 85.425 C 141.761 83.320,138.630 80.325,137.003 78.770 C 135.377 77.214,133.402 75.340,132.614 74.606 C 131.826 73.871,130.143 72.257,128.874 71.019 C 121.630 63.952,119.814 62.370,118.743 62.197 C 118.302 62.125,117.887 61.979,117.820 61.872 C 117.652 61.600,116.151 61.627,116.151 61.902 " stroke="none" fill="#940c0c" fill-rule="evenodd"></path><path id="path2" d="M246.858 90.865 C 246.775 90.947,246.708 95.455,246.708 100.882 L 246.708 110.748 248.734 110.748 L 250.760 110.748 250.760 108.540 C 250.760 106.355,250.767 106.326,251.424 105.840 C 251.958 105.445,252.124 105.408,252.269 105.654 C 252.481 106.017,253.634 107.465,254.192 108.070 C 254.409 108.305,254.588 108.573,254.590 108.666 C 254.592 108.759,254.846 109.074,255.153 109.365 C 255.460 109.657,255.712 110.026,255.712 110.185 C 255.712 110.345,255.872 110.537,256.068 110.612 C 256.591 110.813,260.889 110.778,260.889 110.573 C 260.889 110.311,260.170 109.311,259.834 109.105 C 259.671 109.006,259.539 108.799,259.539 108.645 C 259.539 108.490,259.239 108.115,258.873 107.812 C 258.507 107.508,258.203 107.134,258.197 106.980 C 258.192 106.826,257.985 106.574,257.738 106.419 C 257.490 106.265,257.288 106.026,257.288 105.888 C 257.288 105.751,257.009 105.327,256.669 104.947 C 254.405 102.419,254.289 103.110,257.513 99.898 C 260.784 96.639,260.771 96.792,257.766 96.792 L 255.319 96.792 253.039 99.159 L 250.760 101.526 250.760 96.120 L 250.760 90.715 248.884 90.715 C 247.852 90.715,246.941 90.782,246.858 90.865 M262.015 100.723 L 262.015 110.748 264.041 110.748 L 266.066 110.748 266.066 108.514 C 266.066 106.148,266.806 104.680,267.522 105.624 C 269.246 107.897,270.043 108.903,270.383 109.238 C 270.609 109.459,270.793 109.731,270.793 109.841 C 270.793 109.951,270.953 110.200,271.147 110.395 C 271.560 110.808,276.196 110.926,276.196 110.523 C 276.196 110.400,276.095 110.298,275.971 110.298 C 275.847 110.298,275.746 110.164,275.746 110.000 C 275.746 109.836,275.492 109.464,275.183 109.173 C 274.873 108.882,274.620 108.564,274.620 108.466 C 274.620 108.368,274.342 107.985,274.001 107.615 C 273.661 107.245,273.209 106.710,272.998 106.426 C 272.786 106.141,272.331 105.554,271.985 105.121 C 271.639 104.688,271.255 104.199,271.131 104.036 C 271.007 103.872,270.729 103.543,270.512 103.304 C 269.959 102.694,269.847 102.859,272.819 99.898 C 276.091 96.639,276.078 96.792,273.073 96.792 L 270.626 96.792 268.403 99.037 L 266.179 101.283 266.066 96.055 L 265.954 90.827 263.984 90.762 L 262.015 90.697 262.015 100.723 M192.333 93.472 C 191.977 94.370,191.624 95.155,191.549 95.217 C 191.474 95.279,191.281 95.810,191.119 96.398 C 190.957 96.986,190.748 97.468,190.654 97.468 C 190.560 97.468,190.417 97.822,190.336 98.255 C 190.254 98.689,190.103 99.043,190.000 99.043 C 189.896 99.043,189.697 99.499,189.556 100.056 C 189.416 100.613,189.210 101.069,189.097 101.069 C 188.985 101.069,188.829 101.363,188.750 101.723 C 188.671 102.082,188.410 102.762,188.169 103.233 C 187.929 103.705,187.732 104.272,187.732 104.493 C 187.732 104.715,187.641 104.896,187.529 104.896 C 187.418 104.896,187.205 105.402,187.057 106.021 C 186.908 106.640,186.700 107.147,186.594 107.147 C 186.489 107.147,186.335 107.501,186.254 107.935 C 186.173 108.368,186.026 108.723,185.928 108.723 C 185.734 108.723,185.256 109.952,185.256 110.453 C 185.256 111.072,189.628 110.756,189.717 110.129 C 189.757 109.851,189.873 109.623,189.974 109.623 C 190.076 109.623,190.227 109.344,190.310 109.004 C 190.393 108.663,190.626 108.005,190.828 107.541 L 191.195 106.697 194.861 106.697 C 198.949 106.697,198.957 106.700,199.320 108.441 C 199.404 108.844,199.555 109.173,199.655 109.173 C 199.755 109.173,199.904 109.527,199.985 109.961 L 200.133 110.748 202.374 110.748 C 204.614 110.748,204.615 110.748,204.615 110.186 C 204.615 109.876,204.521 109.623,204.407 109.623 C 204.293 109.623,204.133 109.319,204.052 108.948 C 203.970 108.576,203.810 108.272,203.696 108.272 C 203.582 108.272,203.489 108.091,203.489 107.870 C 203.489 107.648,203.286 107.070,203.039 106.584 C 202.791 106.098,202.589 105.624,202.589 105.530 C 202.589 105.436,202.335 104.806,202.026 104.129 C 201.716 103.452,201.463 102.791,201.463 102.659 C 201.463 102.528,201.381 102.420,201.281 102.420 C 201.180 102.420,200.968 101.913,200.810 101.294 C 200.651 100.675,200.440 100.169,200.342 100.169 C 200.243 100.169,200.096 99.814,200.015 99.381 C 199.934 98.948,199.778 98.593,199.670 98.593 C 199.562 98.593,199.403 98.264,199.318 97.862 C 199.233 97.459,198.972 96.814,198.738 96.428 C 198.503 96.042,198.312 95.561,198.312 95.359 C 198.312 95.157,198.220 94.992,198.107 94.992 C 197.995 94.992,197.773 94.485,197.615 93.866 C 197.456 93.247,197.256 92.741,197.170 92.741 C 197.084 92.741,196.961 92.538,196.896 92.290 C 196.790 91.885,196.589 91.840,194.880 91.840 L 192.981 91.840 192.333 93.472 M211.496 96.542 C 211.428 96.651,211.027 96.806,210.604 96.886 C 210.181 96.965,209.778 97.179,209.708 97.361 C 209.522 97.847,209.116 97.766,209.116 97.243 C 209.116 96.830,208.966 96.792,207.316 96.792 L 205.515 96.792 205.515 103.770 L 205.515 110.748 207.541 110.748 L 209.567 110.748 209.570 105.965 C 209.573 100.916,209.649 100.169,210.163 100.169 C 210.338 100.169,210.540 100.017,210.611 99.831 C 210.785 99.378,213.069 99.362,213.518 99.811 C 213.693 99.986,213.964 100.171,214.121 100.224 C 214.338 100.296,214.423 101.571,214.474 105.533 L 214.542 110.748 216.544 110.748 L 218.546 110.748 218.614 105.944 L 218.683 101.140 219.531 100.317 C 220.377 99.496,222.622 99.062,222.622 99.719 C 222.622 99.842,222.772 99.944,222.956 99.944 C 223.139 99.944,223.353 100.197,223.430 100.506 C 223.508 100.816,223.662 101.069,223.772 101.069 C 223.884 101.069,223.973 103.225,223.973 105.909 L 223.973 110.748 225.999 110.748 L 228.025 110.748 228.025 105.459 C 228.025 102.549,227.936 100.169,227.828 100.169 C 227.720 100.169,227.569 99.777,227.493 99.297 C 227.329 98.275,225.828 96.792,224.957 96.792 C 224.663 96.792,224.423 96.691,224.423 96.567 C 224.423 95.806,219.726 96.553,218.740 97.471 C 218.137 98.033,217.878 98.032,217.267 97.463 C 216.998 97.213,216.473 96.947,216.099 96.872 C 215.725 96.797,215.419 96.647,215.419 96.539 C 215.419 96.280,211.656 96.283,211.496 96.542 M235.228 96.538 C 235.228 96.645,234.830 96.786,234.343 96.852 C 233.414 96.976,233.158 97.134,232.000 98.292 C 230.869 99.423,230.726 99.658,230.726 100.384 L 230.726 101.069 232.752 101.069 C 234.628 101.069,234.778 101.036,234.778 100.619 C 234.778 100.371,234.872 100.169,234.987 100.169 C 235.102 100.169,235.373 99.992,235.590 99.775 C 236.740 98.625,239.505 99.721,239.505 101.327 L 239.505 101.970 237.267 101.970 C 236.036 101.970,234.975 102.058,234.909 102.165 C 234.842 102.273,234.380 102.426,233.882 102.505 C 233.384 102.585,232.977 102.730,232.977 102.827 C 232.977 102.925,232.628 103.131,232.201 103.285 C 231.758 103.445,231.359 103.775,231.271 104.052 C 231.186 104.319,230.968 104.686,230.787 104.867 C 229.514 106.140,231.210 110.271,233.166 110.662 C 233.557 110.741,233.877 110.893,233.877 111.002 C 233.877 111.241,237.635 111.268,237.742 111.030 C 237.916 110.637,239.927 110.125,240.049 110.443 C 240.136 110.669,240.699 110.748,242.224 110.748 L 244.283 110.748 244.126 109.679 C 244.040 109.091,243.877 108.514,243.763 108.396 C 243.650 108.279,243.557 106.235,243.557 103.854 C 243.557 100.677,243.481 99.447,243.273 99.228 C 243.116 99.065,242.869 98.661,242.724 98.331 C 242.578 98.002,242.229 97.659,241.949 97.570 C 241.668 97.481,241.301 97.270,241.131 97.100 C 240.962 96.931,240.583 96.792,240.290 96.792 C 239.996 96.792,239.694 96.691,239.617 96.567 C 239.447 96.292,235.228 96.263,235.228 96.538 M281.504 96.538 C 281.437 96.645,280.976 96.798,280.478 96.878 C 279.980 96.958,279.572 97.099,279.572 97.192 C 279.572 97.285,279.352 97.461,279.084 97.583 C 278.339 97.921,277.370 99.281,277.199 100.225 L 277.046 101.069 279.104 101.069 C 280.821 101.069,281.186 101.007,281.307 100.692 C 281.754 99.527,284.825 98.706,285.145 99.666 C 285.197 99.823,285.384 100.096,285.561 100.272 C 285.737 100.449,285.943 100.903,286.019 101.281 L 286.156 101.970 283.778 101.970 C 282.470 101.970,281.346 102.057,281.279 102.164 C 281.213 102.271,280.758 102.413,280.269 102.478 C 279.345 102.602,279.146 102.723,277.864 103.932 C 277.383 104.385,277.096 104.869,277.096 105.226 C 277.096 105.540,276.995 105.796,276.871 105.796 C 276.747 105.796,276.646 106.303,276.646 106.922 C 276.646 107.541,276.747 108.047,276.871 108.047 C 276.995 108.047,277.096 108.199,277.096 108.385 C 277.096 109.004,278.755 110.476,279.641 110.642 C 280.098 110.728,280.473 110.889,280.473 110.999 C 280.473 111.247,283.904 111.266,284.198 111.020 C 284.680 110.616,286.191 110.233,286.277 110.492 C 286.333 110.658,287.060 110.748,288.333 110.748 L 290.304 110.748 290.223 106.640 C 290.122 101.588,289.953 99.268,289.683 99.268 C 289.569 99.268,289.477 99.158,289.477 99.023 C 289.477 98.676,288.297 97.468,287.958 97.468 C 287.803 97.468,287.676 97.371,287.676 97.253 C 287.676 97.135,287.320 96.971,286.886 96.890 C 286.451 96.808,286.040 96.651,285.972 96.542 C 285.812 96.284,281.663 96.280,281.504 96.538 M195.273 97.974 C 195.352 98.253,195.554 98.784,195.722 99.156 C 196.420 100.698,196.710 101.443,196.862 102.082 C 196.951 102.454,197.123 102.884,197.245 103.039 C 197.420 103.261,196.902 103.316,194.794 103.302 C 193.324 103.293,192.245 103.235,192.396 103.173 C 192.547 103.112,192.735 102.715,192.815 102.291 C 192.894 101.867,193.039 101.519,193.137 101.519 C 193.235 101.519,193.436 101.013,193.585 100.394 C 193.733 99.775,193.946 99.268,194.057 99.268 C 194.169 99.268,194.260 99.123,194.260 98.945 C 194.260 97.805,195.020 97.077,195.273 97.974 M239.501 105.627 C 239.494 107.710,236.658 108.934,235.127 107.515 C 233.590 106.091,234.921 104.721,237.873 104.689 L 239.505 104.671 239.501 105.627 M286.097 105.402 C 286.092 106.689,285.870 107.114,285.063 107.380 C 284.643 107.519,284.299 107.725,284.299 107.840 C 284.299 108.427,282.001 108.044,281.351 107.348 C 280.709 106.661,280.495 106.021,280.908 106.021 C 281.023 106.021,281.182 105.820,281.260 105.574 C 281.445 104.992,282.445 104.716,284.468 104.691 L 286.100 104.671 286.097 105.402 M187.057 132.583 L 187.057 142.037 189.083 142.037 L 191.109 142.037 191.109 137.985 L 191.109 133.934 195.498 133.934 L 199.887 133.934 199.887 137.985 L 199.887 142.037 202.026 142.037 L 204.164 142.037 204.164 132.583 L 204.164 123.129 202.026 123.129 L 199.887 123.129 199.887 126.956 L 199.887 130.782 195.498 130.782 L 191.109 130.782 191.109 126.956 L 191.109 123.129 189.083 123.129 L 187.057 123.129 187.057 132.583 M212.043 127.836 C 212.043 127.949,211.638 128.110,211.142 128.194 C 210.647 128.277,210.242 128.431,210.242 128.536 C 210.242 128.640,210.051 128.787,209.817 128.861 C 209.179 129.063,208.336 129.921,207.976 130.734 C 207.800 131.132,207.586 131.458,207.500 131.458 C 207.414 131.458,207.281 131.939,207.205 132.527 C 207.130 133.115,206.971 133.772,206.854 133.987 C 206.587 134.475,206.572 136.185,206.834 136.185 C 206.941 136.185,207.090 136.709,207.166 137.349 C 207.242 137.990,207.383 138.572,207.479 138.644 C 207.575 138.715,207.806 139.074,207.991 139.442 C 208.439 140.330,208.902 140.779,209.758 141.158 C 210.148 141.330,210.467 141.547,210.467 141.639 C 210.467 141.731,210.872 141.872,211.367 141.951 C 211.863 142.030,212.268 142.183,212.268 142.291 C 212.268 142.399,213.129 142.487,214.181 142.487 C 215.307 142.487,216.095 142.395,216.095 142.262 C 216.095 142.138,216.391 142.037,216.754 142.037 C 217.116 142.037,217.552 141.899,217.721 141.729 C 217.890 141.560,218.277 141.346,218.581 141.253 C 219.394 141.006,221.047 139.099,221.047 138.409 C 221.047 138.196,221.173 137.981,221.328 137.929 C 221.698 137.806,221.730 132.421,221.363 132.181 C 221.227 132.093,221.042 131.720,220.953 131.354 C 220.813 130.785,219.826 129.679,218.481 128.583 C 218.287 128.425,217.821 128.235,217.445 128.160 C 217.068 128.084,216.706 127.935,216.639 127.827 C 216.477 127.565,212.043 127.574,212.043 127.836 M224.198 134.834 L 224.198 142.037 226.224 142.037 L 228.250 142.037 228.253 136.916 L 228.255 131.795 229.037 131.289 C 229.854 130.760,232.077 130.554,232.077 131.007 C 232.077 131.131,232.231 131.232,232.420 131.232 C 233.054 131.232,233.202 132.363,233.202 137.212 L 233.202 142.037 235.228 142.037 L 237.254 142.037 237.254 137.198 C 237.254 134.121,237.336 132.358,237.479 132.358 C 237.603 132.358,237.704 132.204,237.704 132.015 C 237.704 131.827,237.957 131.558,238.267 131.417 C 238.576 131.276,238.829 131.075,238.829 130.971 C 238.829 130.480,241.197 130.786,241.868 131.363 L 242.544 131.944 242.622 136.991 L 242.700 142.037 244.591 142.037 L 246.483 142.037 246.483 136.297 C 246.483 133.086,246.394 130.557,246.282 130.557 C 246.172 130.557,246.019 130.307,245.942 130.002 C 245.750 129.235,244.773 128.313,243.987 128.156 C 243.626 128.084,243.331 127.936,243.331 127.828 C 243.331 127.719,242.420 127.631,241.306 127.631 C 240.191 127.631,239.280 127.721,239.280 127.831 C 239.280 127.941,238.925 128.097,238.492 128.179 C 238.059 128.260,237.703 128.398,237.702 128.485 C 237.694 129.235,235.883 129.139,235.386 128.362 C 235.287 128.208,235.014 128.081,234.780 128.081 C 234.546 128.081,234.291 127.980,234.215 127.856 C 234.138 127.732,233.227 127.631,232.189 127.631 C 231.151 127.631,230.240 127.732,230.163 127.856 C 230.087 127.980,229.835 128.081,229.603 128.081 C 229.372 128.081,229.030 128.233,228.845 128.419 C 228.346 128.918,228.025 128.830,228.025 128.194 C 228.025 127.637,228.002 127.631,226.111 127.631 L 224.198 127.631 224.198 134.834 M253.911 127.838 C 253.911 127.952,253.597 128.114,253.213 128.199 C 252.829 128.283,252.338 128.519,252.122 128.723 C 251.906 128.927,251.460 129.285,251.132 129.519 C 250.803 129.753,250.535 130.072,250.535 130.227 C 250.535 130.382,250.392 130.564,250.218 130.630 C 250.044 130.697,249.829 131.088,249.740 131.499 C 249.651 131.909,249.468 132.315,249.334 132.400 C 249.002 132.611,248.986 137.720,249.316 137.937 C 249.450 138.026,249.677 138.440,249.820 138.857 C 250.068 139.581,251.477 141.137,251.885 141.137 C 251.991 141.137,252.240 141.299,252.438 141.497 C 252.636 141.695,253.200 141.911,253.692 141.976 C 254.184 142.042,254.586 142.184,254.586 142.292 C 254.586 142.399,255.549 142.487,256.725 142.487 C 257.901 142.487,258.863 142.397,258.863 142.287 C 258.863 142.177,259.218 142.021,259.651 141.939 C 260.084 141.858,260.439 141.706,260.439 141.601 C 260.439 141.496,260.715 141.341,261.053 141.256 C 261.627 141.113,262.915 139.919,262.915 139.532 C 262.915 138.654,260.632 137.515,260.007 138.082 C 258.869 139.111,255.487 139.881,255.487 139.111 C 255.487 138.987,255.343 138.886,255.167 138.886 C 254.727 138.886,253.381 137.419,253.199 136.741 L 253.050 136.185 258.008 136.185 L 262.966 136.185 262.878 133.809 C 262.827 132.440,262.686 131.367,262.545 131.277 C 262.411 131.190,262.224 130.867,262.132 130.557 C 261.987 130.074,261.412 129.444,260.275 128.521 C 260.122 128.398,259.692 128.235,259.318 128.161 C 258.944 128.086,258.638 127.936,258.638 127.828 C 258.638 127.719,257.575 127.631,256.275 127.631 C 254.975 127.631,253.911 127.724,253.911 127.838 M268.993 127.856 C 268.993 127.980,268.747 128.081,268.446 128.081 C 268.145 128.081,267.747 128.233,267.562 128.419 C 267.376 128.604,267.138 128.756,267.033 128.756 C 266.928 128.756,266.490 129.078,266.060 129.470 C 264.009 131.344,265.756 135.734,268.553 135.734 C 268.795 135.734,268.993 135.828,268.993 135.943 C 268.993 136.058,269.550 136.222,270.231 136.307 C 270.912 136.392,271.469 136.538,271.469 136.632 C 271.469 136.726,271.849 136.863,272.314 136.937 C 274.814 137.337,274.203 139.438,271.585 139.445 C 269.977 139.449,268.550 138.685,268.545 137.817 C 268.543 137.329,268.467 137.310,266.517 137.310 L 264.491 137.310 264.491 137.985 C 264.491 138.357,264.592 138.661,264.716 138.661 C 264.840 138.661,264.941 138.867,264.941 139.120 C 264.941 139.621,266.630 141.362,267.116 141.362 C 267.282 141.362,267.417 141.454,267.417 141.567 C 267.417 141.680,267.822 141.841,268.317 141.925 C 268.813 142.008,269.218 142.169,269.218 142.282 C 269.218 142.395,270.180 142.487,271.356 142.487 C 272.532 142.487,273.495 142.399,273.495 142.292 C 273.495 142.184,273.923 142.039,274.446 141.969 C 274.970 141.899,275.434 141.733,275.478 141.601 C 275.522 141.470,275.694 141.362,275.860 141.362 C 276.369 141.362,277.546 140.014,277.546 139.431 C 277.546 139.131,277.648 138.886,277.772 138.886 C 277.895 138.886,277.997 138.481,277.997 137.985 C 277.997 137.490,277.895 137.085,277.772 137.085 C 277.648 137.085,277.546 136.881,277.546 136.631 C 277.546 136.024,276.070 134.617,275.264 134.456 C 274.910 134.385,274.620 134.249,274.620 134.153 C 274.620 134.056,274.012 133.907,273.270 133.821 C 272.527 133.735,271.919 133.584,271.919 133.487 C 271.919 133.389,271.464 133.241,270.909 133.158 C 269.767 132.987,269.216 132.555,269.221 131.835 C 269.234 130.041,273.455 130.168,273.487 131.964 C 273.494 132.310,273.745 132.358,275.549 132.358 L 277.604 132.358 277.494 131.215 C 277.403 130.267,277.255 129.960,276.621 129.409 C 275.385 128.334,275.334 128.303,274.625 128.161 C 274.251 128.086,273.945 127.936,273.945 127.828 C 273.945 127.719,272.831 127.631,271.469 127.631 C 269.968 127.631,268.993 127.720,268.993 127.856 M216.001 131.315 C 218.214 132.655,218.239 137.734,216.038 138.719 C 215.698 138.871,215.419 139.072,215.419 139.166 C 215.419 139.259,214.862 139.336,214.181 139.336 C 213.500 139.336,212.943 139.235,212.943 139.111 C 212.943 138.987,212.798 138.886,212.621 138.886 C 212.192 138.886,211.398 137.745,211.225 136.879 C 211.149 136.497,210.997 136.185,210.889 136.185 C 210.781 136.185,210.692 135.678,210.692 135.059 C 210.692 134.440,210.781 133.934,210.889 133.934 C 210.997 133.934,211.149 133.621,211.225 133.239 C 211.398 132.373,212.192 131.232,212.621 131.232 C 212.798 131.232,212.943 131.138,212.943 131.022 C 212.943 130.457,214.893 130.644,216.001 131.315 M257.816 131.272 C 258.206 131.541,258.550 131.777,258.580 131.795 C 258.609 131.813,258.698 132.150,258.776 132.543 L 258.920 133.258 256.078 133.258 C 254.515 133.258,253.236 133.213,253.236 133.159 C 253.236 132.797,254.246 131.453,254.603 131.340 C 254.841 131.264,255.037 131.108,255.037 130.992 C 255.037 130.563,257.088 130.770,257.816 131.272 " stroke="none" fill="#545454" fill-rule="evenodd"></path><path id="path3" d="" stroke="none" fill="#743470" fill-rule="evenodd"></path><path id="path4" d="M73.258 140.687 C 73.258 144.834,73.288 146.531,73.325 144.457 C 73.363 142.383,73.363 138.990,73.325 136.916 C 73.288 134.842,73.258 136.539,73.258 140.687 " stroke="none" fill="#383488" fill-rule="evenodd"></path></g></svg>