<svg id="svg" version="1.1" xmlns="http://www.w3.org/2000/svg" xmlns:xlink="http://www.w3.org/1999/xlink" width="400" height="225" viewBox="0, 0, 400,225"><g id="svgg"><path id="path0" d="M115.904 62.439 C 114.571 62.795,111.906 65.103,105.347 71.581 C 104.783 72.138,103.261 73.602,101.964 74.835 C 100.667 76.067,98.336 78.295,96.784 79.787 C 95.231 81.278,92.902 83.508,91.606 84.742 C 89.275 86.962,86.379 89.737,81.148 94.763 C 79.662 96.191,76.422 99.282,73.947 101.634 C 71.472 103.985,68.383 106.929,67.082 108.176 C 65.780 109.424,64.185 110.931,63.536 111.526 C 59.213 115.488,60.677 121.205,65.913 120.810 C 67.876 120.661,67.683 120.822,79.113 109.842 C 82.468 106.620,86.582 102.688,89.351 100.059 C 92.272 97.286,102.725 87.269,110.523 79.772 C 114.953 75.512,116.857 73.722,117.021 73.661 C 117.223 73.586,118.934 75.165,125.493 81.481 C 129.013 84.871,132.338 88.049,138.330 93.754 C 140.801 96.106,144.040 99.195,145.529 100.619 C 155.076 109.750,162.397 116.728,164.479 118.682 C 168.303 122.271,172.146 121.837,173.453 117.670 C 174.278 115.037,173.964 114.616,164.330 105.449 C 163.035 104.216,160.806 102.085,159.378 100.714 C 157.950 99.342,154.502 96.055,151.716 93.409 C 148.931 90.763,145.277 87.276,143.596 85.661 C 141.916 84.045,139.536 81.767,138.307 80.599 C 137.078 79.430,134.957 77.404,133.595 76.097 C 132.233 74.789,129.097 71.795,126.628 69.443 C 124.158 67.091,121.749 64.790,121.274 64.331 C 120.031 63.129,119.297 62.655,118.402 62.476 C 117.968 62.389,117.462 62.283,117.276 62.240 C 117.091 62.197,116.473 62.286,115.904 62.439 M247.158 100.957 L 247.158 110.523 248.734 110.523 L 250.310 110.523 250.310 108.296 L 250.310 106.068 251.105 105.369 C 252.161 104.442,251.927 104.287,254.474 107.597 L 256.725 110.522 258.469 110.523 C 260.315 110.523,260.379 110.502,259.927 110.033 C 259.769 109.869,259.136 109.077,258.520 108.272 C 257.904 107.468,257.347 106.759,257.283 106.697 C 256.618 106.059,254.361 102.953,254.361 102.676 C 254.361 102.477,255.550 101.122,257.003 99.666 L 259.644 97.017 257.843 97.017 L 256.042 97.017 253.348 99.719 C 251.867 101.204,250.577 102.420,250.482 102.420 C 250.387 102.420,250.310 99.938,250.310 96.905 L 250.310 91.390 248.734 91.390 L 247.158 91.390 247.158 100.957 M262.465 100.957 L 262.465 110.523 264.041 110.523 L 265.616 110.523 265.616 108.317 C 265.616 106.116,265.618 106.108,266.358 105.390 C 267.348 104.431,267.332 104.424,268.880 106.482 C 269.623 107.470,270.419 108.505,270.648 108.782 C 270.878 109.059,271.289 109.568,271.562 109.915 C 272.038 110.518,272.130 110.541,273.764 110.477 L 275.469 110.411 272.456 106.605 C 270.799 104.511,269.443 102.748,269.443 102.685 C 269.443 102.623,270.679 101.323,272.189 99.795 L 274.935 97.017 273.081 97.017 L 271.228 97.017 268.600 99.719 C 267.154 101.204,265.891 102.420,265.794 102.420 C 265.696 102.420,265.616 99.938,265.616 96.905 L 265.616 91.390 264.041 91.390 L 262.465 91.390 262.465 100.957 M193.210 92.684 C 193.086 93.044,191.359 97.185,190.886 98.255 C 190.777 98.503,190.220 99.820,189.648 101.182 C 189.077 102.544,188.520 103.860,188.411 104.108 C 188.302 104.356,188.041 104.963,187.830 105.459 C 187.620 105.954,187.268 106.764,187.049 107.259 C 186.297 108.957,185.706 110.356,185.706 110.439 C 185.706 110.780,189.112 110.481,189.236 110.129 C 189.312 109.913,189.562 109.311,189.791 108.791 C 190.021 108.272,190.208 107.745,190.208 107.620 C 190.208 107.495,190.326 107.135,190.469 106.820 L 190.731 106.246 194.915 106.248 L 199.100 106.249 199.876 108.298 C 200.760 110.632,200.680 110.568,202.634 110.478 L 204.097 110.411 203.142 108.160 C 202.616 106.922,202.059 105.605,201.903 105.234 C 201.747 104.862,201.438 104.153,201.218 103.658 C 200.997 103.163,200.552 102.099,200.229 101.294 C 199.614 99.760,199.579 99.677,198.701 97.693 C 198.400 97.012,197.763 95.518,197.285 94.373 L 196.416 92.290 194.881 92.290 C 193.620 92.290,193.321 92.361,193.210 92.684 M196.041 98.537 C 196.567 99.868,197.192 101.431,197.430 102.011 C 198.251 104.018,198.279 103.995,194.949 103.995 C 191.661 103.995,191.548 103.938,192.136 102.569 C 192.358 102.054,192.716 101.223,192.933 100.724 C 193.149 100.224,193.396 99.540,193.481 99.202 C 193.565 98.865,193.725 98.533,193.835 98.465 C 193.945 98.397,194.035 98.192,194.035 98.010 C 194.035 97.508,194.660 96.117,194.885 96.117 C 194.995 96.117,195.514 97.206,196.041 98.537 M211.973 97.018 C 211.378 97.123,210.542 97.475,210.115 97.801 C 209.252 98.459,208.891 98.390,208.891 97.567 C 208.891 97.041,208.829 97.017,207.428 97.017 L 205.965 97.017 205.965 103.770 L 205.965 110.523 207.428 110.523 L 208.891 110.523 208.891 105.680 L 208.891 100.838 209.647 100.013 C 210.632 98.938,212.637 98.679,213.907 99.463 C 215.031 100.158,215.194 100.998,215.194 106.104 L 215.194 110.523 216.793 110.523 L 218.392 110.523 218.313 105.688 L 218.233 100.853 219.081 100.004 C 219.899 99.186,219.984 99.156,221.494 99.156 C 224.183 99.156,224.410 99.703,224.418 106.190 L 224.423 110.523 225.886 110.523 L 227.349 110.523 227.348 105.515 C 227.347 99.932,227.217 99.151,226.110 98.044 C 224.529 96.463,220.805 96.464,218.874 98.046 C 217.836 98.897,217.555 98.980,217.368 98.491 C 216.933 97.359,214.227 96.620,211.973 97.018 M235.632 97.026 C 233.680 97.327,231.401 99.029,231.401 100.186 C 231.401 100.997,234.103 100.808,234.736 99.952 C 235.504 98.913,236.961 98.645,238.890 99.189 C 239.423 99.339,240.224 100.955,240.137 101.705 L 240.068 102.307 237.389 102.475 C 232.092 102.806,229.546 105.414,231.419 108.590 C 232.640 110.659,237.043 111.371,239.122 109.834 C 239.851 109.295,240.405 109.395,240.405 110.066 C 240.405 110.486,240.546 110.523,242.117 110.523 C 243.663 110.523,243.813 110.485,243.659 110.129 C 243.321 109.347,243.144 107.190,243.118 103.545 C 243.077 97.834,241.168 96.171,235.632 97.026 M281.866 97.030 C 279.962 97.369,277.546 99.257,277.546 100.407 C 277.546 100.524,278.306 100.619,279.235 100.619 C 280.499 100.619,280.923 100.543,280.923 100.316 C 280.923 99.414,282.984 98.672,284.525 99.018 C 285.744 99.292,286.308 100.016,286.318 101.316 L 286.325 102.351 283.742 102.489 C 279.290 102.728,277.434 103.953,277.434 106.653 C 277.434 110.121,282.303 112.071,285.422 109.850 C 286.244 109.265,286.424 109.280,286.735 109.961 C 286.973 110.484,287.102 110.523,288.596 110.523 C 290.044 110.523,290.182 110.485,290.015 110.129 C 289.913 109.913,289.772 107.659,289.701 105.121 C 289.567 100.310,289.397 99.378,288.484 98.455 C 287.199 97.155,284.471 96.567,281.866 97.030 M240.136 105.431 C 240.287 108.350,235.399 109.959,234.317 107.347 C 233.461 105.281,235.077 103.975,238.379 104.063 L 240.068 104.108 240.136 105.431 M286.325 105.551 C 286.325 108.868,281.017 109.946,280.407 106.754 C 280.108 105.190,281.920 104.029,284.693 104.008 L 286.325 103.995 286.325 105.551 M187.507 132.583 L 187.507 141.587 189.195 141.587 L 190.884 141.587 190.884 137.535 L 190.884 133.483 195.611 133.483 L 200.338 133.483 200.338 137.535 L 200.338 141.587 202.026 141.587 L 203.714 141.587 203.714 132.583 L 203.714 123.579 202.026 123.579 L 200.338 123.579 200.338 127.406 L 200.338 131.232 195.611 131.232 L 190.884 131.232 190.884 127.406 L 190.884 123.579 189.195 123.579 L 187.507 123.579 187.507 132.583 M212.572 128.294 C 205.988 129.329,205.460 140.083,211.915 141.678 C 216.052 142.701,219.862 140.849,220.915 137.304 C 222.578 131.705,218.550 127.355,212.572 128.294 M230.329 128.301 C 229.925 128.397,229.192 128.741,228.702 129.066 C 227.603 129.794,227.659 129.798,227.496 128.981 C 227.362 128.314,227.344 128.306,225.892 128.306 L 224.423 128.306 224.423 134.947 L 224.423 141.587 226.111 141.587 L 227.800 141.587 227.800 136.635 C 227.800 130.692,227.973 130.332,230.843 130.332 C 233.495 130.332,233.748 130.878,233.837 136.804 L 233.909 141.587 235.356 141.587 L 236.804 141.587 236.804 137.006 C 236.804 130.999,237.225 130.220,240.379 130.392 C 242.835 130.525,242.881 130.641,242.881 136.647 L 242.881 141.587 244.569 141.587 L 246.258 141.587 246.255 137.141 C 246.252 131.212,245.902 129.861,244.075 128.726 C 242.289 127.616,238.419 128.135,236.964 129.680 C 236.445 130.230,236.484 130.240,235.625 129.318 C 234.622 128.241,232.390 127.812,230.329 128.301 M254.619 128.309 C 251.658 128.933,249.655 131.402,249.452 134.680 C 249.210 138.582,251.515 141.404,255.253 141.782 C 259.349 142.196,263.373 140.362,261.580 138.899 L 260.816 138.275 259.783 138.974 C 257.104 140.788,252.786 139.282,252.786 136.533 L 252.786 135.959 257.771 135.959 L 262.756 135.959 262.610 134.058 C 262.275 129.691,259.056 127.375,254.619 128.309 M269.293 128.301 C 264.020 129.426,264.501 134.470,270.006 135.756 C 273.588 136.593,274.578 137.211,274.280 138.426 C 273.761 140.547,268.897 140.392,268.212 138.233 C 267.963 137.447,265.166 137.523,265.166 138.315 C 265.166 139.712,267.580 141.494,269.824 141.753 C 278.593 142.766,280.543 135.513,271.919 133.962 C 269.287 133.488,268.274 132.643,268.772 131.334 C 269.460 129.523,274.112 129.970,274.162 131.851 C 274.172 132.206,277.321 132.254,277.321 131.900 C 277.321 129.410,273.057 127.498,269.293 128.301 M216.876 131.322 C 218.918 133.551,218.389 138.291,215.971 139.439 C 212.293 141.184,209.024 136.792,210.869 132.583 C 211.958 130.098,215.143 129.430,216.876 131.322 M258.326 130.903 C 259.081 131.649,259.539 132.534,259.539 133.250 L 259.539 133.934 256.162 133.934 C 252.445 133.934,252.453 133.937,253.003 132.491 C 253.752 130.520,256.967 129.561,258.326 130.903 " stroke="none" fill="#800000" fill-rule="evenodd"></path><path id="path1" d="M0.000 112.549 L 0.000 225.098 200.000 225.098 L 400.000 225.098 400.000 112.549 L 400.000 0.000 200.000 0.000 L 0.000 0.000 0.000 112.549 M119.255 62.555 C 119.714 62.790,120.657 63.524,121.350 64.187 C 122.044 64.849,124.424 67.112,126.640 69.216 C 128.856 71.319,131.885 74.207,133.371 75.632 C 135.841 78.004,144.109 85.905,146.090 87.788 C 148.405 89.989,151.673 93.111,154.206 95.542 C 155.761 97.034,158.901 100.028,161.182 102.195 C 172.022 112.487,172.906 113.372,173.416 114.446 C 175.278 118.370,170.622 122.919,166.876 120.835 C 165.728 120.196,164.867 119.398,151.275 106.359 C 145.933 101.234,143.035 98.465,138.673 94.315 C 131.620 87.606,129.263 85.357,126.395 82.604 C 124.908 81.177,122.831 79.188,121.778 78.185 C 120.726 77.181,119.268 75.788,118.538 75.089 C 117.808 74.389,117.134 73.846,117.040 73.881 C 116.807 73.969,114.082 76.560,104.332 85.969 C 99.158 90.961,87.560 102.051,86.656 102.870 C 86.451 103.056,85.229 104.223,83.941 105.463 C 82.652 106.704,79.577 109.641,77.106 111.991 C 74.635 114.341,71.715 117.124,70.618 118.177 C 66.529 122.098,63.088 122.099,61.108 118.182 C 59.727 115.450,60.496 114.170,67.530 107.493 C 68.953 106.141,71.232 103.965,72.594 102.657 C 73.956 101.349,76.185 99.220,77.546 97.926 C 78.908 96.632,81.141 94.505,82.507 93.200 C 83.873 91.895,86.153 89.719,87.572 88.365 C 93.028 83.158,94.525 81.726,97.472 78.895 C 99.145 77.286,101.932 74.603,103.665 72.932 C 110.362 66.471,113.938 63.156,114.747 62.659 C 115.850 61.980,118.034 61.930,119.255 62.555 M120.228 88.131 C 120.538 88.376,121.589 89.437,122.562 90.490 C 123.535 91.542,125.454 93.618,126.825 95.102 C 128.197 96.587,130.028 98.566,130.895 99.500 C 133.158 101.940,136.598 105.670,141.582 111.086 C 143.974 113.686,146.501 116.421,147.197 117.164 C 147.894 117.907,150.181 120.388,152.280 122.679 C 154.380 124.969,156.926 127.725,157.938 128.803 C 160.283 131.299,160.183 130.698,160.045 141.518 L 159.932 150.341 159.165 151.133 C 157.601 152.746,161.321 152.617,116.354 152.617 L 75.770 152.617 74.930 152.035 C 73.345 150.936,73.360 151.054,73.431 140.519 C 73.494 131.189,73.499 131.103,73.994 130.474 C 74.268 130.125,83.299 120.961,94.062 110.109 C 104.825 99.256,113.973 89.921,114.390 89.364 C 115.757 87.541,118.694 86.921,120.228 88.131 M250.482 96.398 C 250.516 99.339,250.619 101.745,250.711 101.745 C 250.804 101.745,251.991 100.630,253.348 99.268 L 255.817 96.792 257.777 96.792 C 260.367 96.792,260.373 96.753,257.276 99.843 C 255.797 101.318,254.586 102.590,254.586 102.669 C 254.586 102.748,255.954 104.549,257.625 106.672 C 259.297 108.795,260.664 110.580,260.664 110.640 C 260.664 110.817,256.746 110.757,256.494 110.576 C 256.367 110.485,255.836 109.854,255.314 109.173 C 254.792 108.492,254.284 107.833,254.185 107.710 C 254.086 107.586,253.558 106.891,253.012 106.165 L 252.018 104.846 251.277 105.655 C 250.546 106.452,250.535 106.498,250.535 108.607 L 250.535 110.748 248.734 110.748 L 246.933 110.748 246.933 100.994 C 246.933 95.629,247.005 91.168,247.092 91.081 C 247.179 90.993,247.964 90.951,248.837 90.987 L 250.422 91.052 250.482 96.398 M265.789 96.398 C 265.822 99.339,265.925 101.745,266.018 101.745 C 266.111 101.745,267.297 100.630,268.655 99.268 L 271.123 96.792 273.084 96.792 C 275.684 96.792,275.692 96.752,272.468 99.940 C 269.380 102.993,269.528 102.645,270.757 103.968 C 270.923 104.146,271.479 104.859,271.994 105.551 C 272.508 106.243,272.986 106.860,273.055 106.922 C 273.496 107.316,275.746 110.317,275.746 110.511 C 275.746 110.659,275.002 110.748,273.765 110.748 L 271.784 110.748 269.545 107.832 L 267.307 104.915 266.574 105.625 C 265.845 106.331,265.841 106.347,265.841 108.542 L 265.841 110.748 264.041 110.748 L 262.240 110.748 262.240 100.994 C 262.240 95.629,262.311 91.168,262.399 91.081 C 262.486 90.993,263.271 90.951,264.143 90.987 L 265.729 91.052 265.789 96.398 M196.666 92.347 C 196.781 92.501,197.043 93.033,197.247 93.528 C 197.906 95.130,200.361 100.943,200.573 101.407 C 201.386 103.182,204.389 110.380,204.389 110.552 C 204.389 110.676,203.571 110.739,202.447 110.701 L 200.505 110.636 199.899 109.060 C 198.801 106.208,199.305 106.472,194.941 106.472 C 192.143 106.472,191.087 106.546,190.953 106.753 C 190.853 106.908,190.451 107.845,190.060 108.835 L 189.348 110.636 187.415 110.701 C 186.311 110.738,185.481 110.675,185.481 110.554 C 185.481 110.377,188.645 102.726,189.636 100.506 C 189.802 100.135,190.360 98.818,190.876 97.580 C 191.392 96.342,191.951 95.025,192.118 94.654 C 192.285 94.282,192.593 93.548,192.803 93.022 L 193.183 92.065 194.820 92.065 C 195.867 92.065,196.531 92.167,196.666 92.347 M194.709 96.835 C 194.708 96.997,194.567 97.399,194.396 97.727 C 194.224 98.056,193.959 98.714,193.805 99.190 C 193.652 99.667,193.451 100.158,193.360 100.281 C 193.268 100.405,193.066 100.912,192.912 101.407 C 192.757 101.902,192.541 102.403,192.432 102.521 C 191.551 103.474,192.145 103.770,194.935 103.770 C 196.624 103.770,197.636 103.684,197.636 103.540 C 197.636 103.414,197.271 102.376,196.825 101.233 C 196.378 100.091,195.814 98.626,195.572 97.978 C 195.139 96.821,194.712 96.255,194.709 96.835 M216.376 97.231 C 216.840 97.509,217.220 97.818,217.220 97.916 C 217.220 98.358,217.989 98.322,218.643 97.849 C 221.465 95.810,225.566 96.275,227.065 98.806 C 227.672 99.830,227.673 99.835,227.762 105.299 L 227.851 110.767 225.968 110.702 L 224.086 110.636 223.973 105.538 C 223.846 99.787,223.811 99.669,222.148 99.403 C 219.030 98.905,218.571 99.730,218.571 105.827 L 218.571 110.748 216.770 110.748 L 214.969 110.748 214.968 106.303 C 214.966 100.468,214.800 99.890,213.006 99.480 C 211.799 99.204,210.565 99.457,209.907 100.115 L 209.342 100.680 209.342 105.724 L 209.342 110.767 207.485 110.701 L 205.627 110.636 205.627 103.770 L 205.627 96.905 207.313 96.905 L 209.000 96.905 209.119 97.580 C 209.200 98.037,209.297 98.162,209.420 97.967 C 209.577 97.719,210.677 97.139,211.818 96.705 C 212.640 96.391,215.534 96.725,216.376 97.231 M240.630 97.138 C 243.141 98.391,243.406 99.089,243.578 104.896 C 243.656 107.558,243.797 109.963,243.890 110.242 C 244.161 111.053,240.522 111.026,240.152 110.214 L 239.909 109.680 238.915 110.236 C 235.046 112.398,229.705 109.557,230.733 105.885 C 231.418 103.438,233.257 102.423,237.328 102.247 C 239.902 102.135,239.987 102.116,239.863 101.657 C 239.793 101.395,239.735 101.019,239.733 100.821 C 239.717 98.970,235.428 98.626,234.801 100.425 C 234.578 101.063,234.558 101.069,232.735 101.069 L 230.895 101.069 231.037 100.356 C 231.635 97.367,237.289 95.470,240.630 97.138 M286.485 97.015 C 289.378 98.032,289.740 98.845,289.944 104.783 C 290.034 107.383,290.180 109.789,290.268 110.129 L 290.430 110.748 288.581 110.748 C 286.923 110.748,286.721 110.702,286.616 110.298 C 286.468 109.733,286.303 109.735,285.151 110.323 C 282.099 111.880,277.157 110.185,277.072 107.552 C 276.955 103.898,278.719 102.458,283.568 102.248 L 286.100 102.138 286.100 101.299 C 286.100 99.023,282.032 98.316,281.097 100.428 C 280.798 101.103,277.801 101.439,277.431 100.840 C 277.080 100.271,278.915 97.468,279.638 97.468 C 279.673 97.468,280.255 97.269,280.932 97.026 C 282.570 96.437,284.827 96.432,286.485 97.015 M99.207 116.857 L 80.369 135.847 80.365 141.193 L 80.360 146.539 116.714 146.539 L 153.067 146.539 153.067 141.219 L 153.067 135.900 150.875 133.510 C 148.362 130.770,146.647 128.920,144.388 126.511 C 143.514 125.579,141.084 122.943,138.988 120.653 C 136.893 118.362,135.122 116.438,135.053 116.376 C 134.984 116.314,133.163 114.339,131.006 111.986 C 128.849 109.634,126.467 107.051,125.713 106.246 C 124.417 104.863,123.120 103.463,120.505 100.619 C 119.878 99.938,119.069 99.040,118.705 98.624 L 118.044 97.867 99.207 116.857 M236.664 104.424 C 233.520 104.956,233.540 108.272,236.687 108.272 C 238.716 108.272,239.981 107.164,239.897 105.459 L 239.842 104.333 238.717 104.300 C 238.098 104.282,237.174 104.338,236.664 104.424 M283.034 104.429 C 279.907 104.941,279.908 108.272,283.036 108.272 C 285.057 108.272,286.100 107.339,286.100 105.532 L 286.100 104.221 285.031 104.249 C 284.443 104.264,283.544 104.345,283.034 104.429 M191.058 127.237 L 191.119 131.007 195.611 131.007 L 200.102 131.007 200.163 127.237 L 200.225 123.467 202.026 123.467 L 203.827 123.467 203.827 132.696 L 203.827 141.925 202.026 141.925 L 200.225 141.925 200.113 137.873 L 200.000 133.821 195.559 133.760 L 191.119 133.699 191.057 137.812 L 190.996 141.925 189.215 141.991 C 187.942 142.038,187.381 141.974,187.249 141.766 C 187.024 141.412,186.992 123.719,187.215 123.496 C 187.302 123.409,188.189 123.366,189.185 123.402 L 190.996 123.467 191.058 127.237 M217.783 128.582 C 221.166 130.337,222.525 134.875,220.750 138.489 C 218.157 143.770,209.447 143.353,207.483 137.854 C 205.172 131.380,211.754 125.455,217.783 128.582 M234.391 128.159 C 234.789 128.326,235.445 128.741,235.847 129.080 L 236.579 129.697 237.245 129.136 C 238.996 127.663,242.601 127.389,244.418 128.591 C 246.109 129.710,246.258 130.359,246.258 136.593 L 246.258 142.037 244.594 142.037 C 242.522 142.037,242.656 142.394,242.656 136.875 C 242.656 132.317,242.482 131.118,241.793 130.916 C 237.923 129.784,237.280 130.634,237.202 136.982 L 237.141 141.925 235.340 141.925 L 233.540 141.925 233.427 136.771 L 233.315 131.618 232.679 131.144 C 232.202 130.788,231.715 130.670,230.726 130.670 C 229.737 130.670,229.250 130.788,228.773 131.144 L 228.137 131.618 228.025 136.771 L 227.912 141.925 226.168 141.990 L 224.423 142.056 224.423 135.069 L 224.423 128.081 226.111 128.081 C 227.762 128.081,227.800 128.094,227.800 128.644 C 227.800 129.335,227.830 129.335,228.886 128.669 C 230.242 127.813,232.963 127.561,234.391 128.159 M259.706 128.523 C 261.747 129.597,262.773 131.472,262.790 134.159 L 262.802 136.072 257.793 136.133 L 252.783 136.193 253.134 137.033 C 254.194 139.572,257.393 140.352,259.748 138.646 C 260.881 137.826,260.825 137.822,261.855 138.798 L 262.709 139.607 262.003 140.281 C 258.841 143.303,252.447 142.674,250.204 139.122 C 248.468 136.372,249.149 131.498,251.543 129.536 C 253.685 127.781,257.416 127.318,259.706 128.523 M275.016 128.606 C 276.373 129.305,277.546 130.748,277.546 131.716 L 277.546 132.358 275.768 132.358 C 273.989 132.358,273.989 132.358,273.751 131.675 C 273.181 130.039,269.827 129.898,268.983 131.475 C 268.433 132.502,269.353 133.140,272.369 133.823 C 276.183 134.687,277.546 135.772,277.546 137.941 C 277.546 142.463,269.267 143.962,265.833 140.061 C 265.342 139.503,264.941 138.867,264.941 138.647 C 264.941 138.427,264.878 138.083,264.801 137.882 C 264.677 137.559,264.882 137.524,266.536 137.582 C 268.326 137.645,268.417 137.673,268.543 138.209 C 268.953 139.957,273.591 140.283,273.908 138.587 C 274.157 137.250,273.791 136.999,270.250 136.080 C 266.010 134.979,264.457 133.186,265.613 130.726 C 266.880 128.032,271.764 126.930,275.016 128.606 M212.831 130.772 C 210.919 131.563,210.030 135.243,211.199 137.531 C 212.550 140.176,216.015 140.234,217.330 137.633 C 219.222 133.893,216.248 129.358,212.831 130.772 M254.827 130.951 C 253.960 131.394,253.347 132.170,253.141 133.089 L 253.002 133.708 256.158 133.708 C 259.722 133.708,259.692 133.727,258.842 132.026 C 258.128 130.597,256.420 130.139,254.827 130.951 " stroke="none" fill="#ffffff" fill-rule="evenodd"></path><path id="path2" d="M115.125 62.462 C 114.719 62.772,114.737 62.781,115.363 62.587 C 115.734 62.472,116.241 62.334,116.488 62.279 C 116.782 62.214,116.700 62.170,116.250 62.153 C 115.871 62.139,115.365 62.278,115.125 62.462 M117.295 62.210 C 117.347 62.255,117.794 62.360,118.289 62.443 C 118.934 62.551,119.094 62.529,118.852 62.364 C 118.548 62.157,117.069 62.011,117.295 62.210 M112.924 64.123 C 112.161 64.849,111.232 65.724,110.861 66.068 C 110.490 66.411,110.300 66.653,110.439 66.604 C 110.757 66.495,114.659 62.802,114.458 62.802 C 114.377 62.802,113.687 63.397,112.924 64.123 M124.137 67.024 C 125.124 68.045,126.025 68.880,126.139 68.880 C 126.253 68.880,126.053 68.616,125.694 68.293 C 125.336 67.970,124.434 67.135,123.692 66.437 C 122.806 65.605,122.960 65.807,124.137 67.024 M108.088 68.696 C 107.058 69.688,106.250 70.534,106.292 70.576 C 106.334 70.618,107.203 69.833,108.225 68.832 C 109.246 67.831,110.054 66.985,110.021 66.952 C 109.988 66.919,109.118 67.704,108.088 68.696 M129.657 72.268 C 130.957 73.548,133.185 75.708,134.609 77.068 C 136.033 78.427,137.994 80.307,138.968 81.244 C 139.942 82.182,140.702 82.847,140.656 82.724 C 140.575 82.502,133.597 75.788,129.432 71.924 L 127.293 69.940 129.657 72.268 M99.703 76.725 C 96.784 79.529,94.431 81.867,94.473 81.921 C 94.514 81.974,95.788 80.807,97.302 79.327 C 98.817 77.847,101.207 75.544,102.614 74.209 C 104.021 72.875,105.135 71.748,105.090 71.705 C 105.045 71.662,102.621 73.921,99.703 76.725 M115.581 75.014 L 114.237 76.421 115.695 75.070 C 116.497 74.328,117.197 73.694,117.252 73.663 C 117.307 73.633,117.255 73.607,117.138 73.607 C 117.021 73.607,116.320 74.240,115.581 75.014 M119.329 75.765 C 119.343 75.878,120.001 76.570,120.792 77.302 C 121.582 78.035,122.217 78.541,122.202 78.428 C 122.188 78.314,121.529 77.623,120.739 76.890 C 119.949 76.158,119.314 75.651,119.329 75.765 M110.630 79.648 C 109.272 80.975,105.729 84.386,102.757 87.229 C 96.624 93.096,92.366 97.285,94.879 94.977 C 95.746 94.182,96.508 93.480,96.572 93.417 C 96.637 93.355,97.854 92.189,99.277 90.827 C 108.304 82.187,113.242 77.377,113.165 77.299 C 113.130 77.264,111.989 78.321,110.630 79.648 M125.648 81.876 C 127.420 83.577,129.837 85.907,131.021 87.054 C 132.204 88.201,133.235 89.139,133.312 89.139 C 133.389 89.139,132.319 88.051,130.935 86.720 C 129.551 85.390,127.148 83.060,125.594 81.543 C 124.041 80.026,122.693 78.784,122.599 78.784 C 122.505 78.784,123.877 80.176,125.648 81.876 M91.665 84.450 C 90.394 85.690,89.452 86.669,89.571 86.627 C 89.840 86.532,94.123 82.343,94.038 82.257 C 94.004 82.224,92.936 83.210,91.665 84.450 M141.833 83.854 C 141.855 84.084,156.131 97.744,156.499 97.887 C 156.703 97.966,153.783 95.114,149.143 90.702 C 145.859 87.579,145.662 87.390,143.653 85.430 C 142.640 84.443,141.821 83.734,141.833 83.854 M86.708 89.171 C 85.433 90.420,84.425 91.478,84.468 91.521 C 84.512 91.565,85.604 90.540,86.895 89.244 C 88.187 87.948,89.195 86.891,89.135 86.894 C 89.075 86.897,87.983 87.921,86.708 89.171 M114.899 88.745 L 114.237 89.477 114.969 88.816 C 115.371 88.452,115.701 88.123,115.701 88.084 C 115.701 87.910,115.515 88.063,114.899 88.745 M133.746 89.533 C 133.787 89.626,134.682 90.509,135.734 91.496 L 137.648 93.291 135.739 91.328 C 133.928 89.464,133.573 89.145,133.746 89.533 M108.721 95.385 L 103.658 100.506 108.779 95.444 C 113.537 90.739,114.001 90.264,113.842 90.264 C 113.810 90.264,111.505 92.569,108.721 95.385 M123.016 91.165 C 123.500 91.660,123.946 92.065,124.008 92.065 C 124.070 92.065,123.725 91.660,123.241 91.165 C 122.758 90.670,122.312 90.264,122.250 90.264 C 122.188 90.264,122.533 90.670,123.016 91.165 M247.092 91.081 C 247.005 91.168,246.933 95.629,246.933 100.994 L 246.933 110.748 248.734 110.748 L 250.535 110.748 250.535 108.607 C 250.535 106.496,250.546 106.453,251.279 105.652 L 252.024 104.840 253.080 106.261 C 253.661 107.042,254.136 107.604,254.136 107.510 C 254.136 107.415,253.663 106.723,253.085 105.972 L 252.034 104.606 251.172 105.530 L 250.310 106.454 250.310 108.489 L 250.310 110.523 248.731 110.523 L 247.153 110.523 247.212 100.900 L 247.271 91.277 248.790 91.211 L 250.310 91.144 250.310 96.670 C 250.310 99.708,250.395 102.195,250.501 102.195 C 250.606 102.195,251.841 101.030,253.246 99.606 L 255.800 97.017 257.834 97.017 L 259.869 97.017 257.115 99.778 C 255.601 101.297,254.361 102.606,254.361 102.688 C 254.361 102.770,255.729 104.566,257.400 106.680 L 260.439 110.523 258.525 110.523 L 256.612 110.523 255.563 109.173 C 254.593 107.924,254.104 107.431,254.501 108.104 C 254.770 108.560,256.255 110.396,256.500 110.576 C 256.745 110.757,260.664 110.817,260.664 110.640 C 260.664 110.580,259.297 108.795,257.625 106.672 C 255.954 104.549,254.586 102.748,254.586 102.669 C 254.586 102.590,255.797 101.318,257.276 99.843 C 260.373 96.753,260.367 96.792,257.777 96.792 L 255.817 96.792 253.348 99.268 C 251.991 100.630,250.804 101.745,250.711 101.745 C 250.619 101.745,250.516 99.339,250.482 96.398 L 250.422 91.052 248.837 90.987 C 247.964 90.951,247.179 90.993,247.092 91.081 M262.391 91.103 C 262.329 91.202,263.030 91.246,263.947 91.200 L 265.616 91.116 265.616 96.655 C 265.616 99.702,265.694 102.195,265.789 102.195 C 265.884 102.195,267.123 101.030,268.542 99.606 L 271.124 97.017 273.153 97.018 L 275.183 97.019 273.663 98.482 C 272.828 99.286,272.144 100.018,272.144 100.107 C 272.144 100.196,272.848 99.571,273.709 98.717 C 275.590 96.850,275.571 96.792,273.084 96.792 L 271.123 96.792 268.655 99.268 C 267.297 100.630,266.111 101.745,266.018 101.745 C 265.925 101.745,265.822 99.339,265.789 96.398 L 265.729 91.052 264.116 90.987 C 263.229 90.950,262.453 91.003,262.391 91.103 M79.572 95.974 C 77.096 98.343,75.031 100.383,74.984 100.506 C 74.936 100.630,75.797 99.875,76.897 98.828 C 80.462 95.434,84.191 91.769,84.132 91.717 C 84.100 91.689,82.048 93.604,79.572 95.974 M194.710 92.230 C 195.956 92.285,196.472 92.402,196.680 92.678 C 196.835 92.884,196.961 92.951,196.961 92.829 C 196.961 92.261,196.355 92.067,194.721 92.110 L 193.022 92.155 194.710 92.230 M192.609 93.453 C 192.406 93.972,192.276 94.433,192.321 94.478 C 192.366 94.523,192.572 94.138,192.778 93.622 C 192.984 93.106,193.114 92.645,193.066 92.598 C 193.019 92.550,192.813 92.935,192.609 93.453 M125.380 93.754 C 125.800 94.187,126.194 94.541,126.256 94.541 C 126.318 94.541,126.025 94.187,125.605 93.754 C 125.185 93.320,124.791 92.966,124.729 92.966 C 124.667 92.966,124.960 93.320,125.380 93.754 M196.987 93.303 C 196.991 93.427,197.189 93.934,197.428 94.429 C 197.666 94.924,197.798 95.076,197.720 94.766 C 197.562 94.129,196.975 92.959,196.987 93.303 M139.467 95.017 C 139.545 95.189,140.597 96.241,141.806 97.355 C 143.015 98.469,145.942 101.241,148.310 103.515 C 150.679 105.789,152.607 107.562,152.596 107.455 C 152.585 107.347,151.227 105.993,149.579 104.446 C 147.932 102.898,144.951 100.074,142.955 98.169 C 140.959 96.264,139.390 94.846,139.467 95.017 M191.790 95.313 C 191.456 96.192,191.522 96.331,191.923 95.591 C 192.114 95.239,192.214 94.896,192.145 94.828 C 192.077 94.760,191.917 94.978,191.790 95.313 M198.103 96.005 C 198.103 96.128,198.247 96.483,198.424 96.792 C 198.601 97.102,198.746 97.254,198.746 97.130 C 198.746 97.006,198.601 96.652,198.424 96.342 C 198.247 96.033,198.103 95.881,198.103 96.005 M128.419 97.017 C 128.902 97.513,129.349 97.918,129.410 97.918 C 129.472 97.918,129.127 97.513,128.644 97.017 C 128.160 96.522,127.714 96.117,127.652 96.117 C 127.590 96.117,127.935 96.522,128.419 97.017 M92.332 97.176 C 92.045 97.485,91.850 97.777,91.898 97.826 C 91.946 97.874,92.276 97.610,92.630 97.240 C 92.985 96.870,93.180 96.578,93.064 96.591 C 92.948 96.604,92.619 96.868,92.332 97.176 M211.705 96.715 C 211.458 96.781,211.160 96.926,211.045 97.035 C 210.930 97.145,211.182 97.135,211.606 97.014 C 212.030 96.892,212.885 96.792,213.506 96.792 C 214.127 96.792,214.981 96.892,215.406 97.014 C 215.985 97.180,216.113 97.171,215.919 96.977 C 215.647 96.705,212.474 96.508,211.705 96.715 M220.709 96.715 C 220.461 96.781,220.166 96.924,220.053 97.031 C 219.940 97.139,220.244 97.117,220.728 96.983 C 221.601 96.742,224.118 96.824,224.986 97.122 C 225.433 97.275,225.433 97.274,224.990 96.994 C 224.527 96.701,221.496 96.503,220.709 96.715 M235.034 96.811 C 234.045 97.114,234.237 97.302,235.241 97.014 C 236.196 96.740,238.425 96.735,239.589 97.005 C 240.202 97.148,240.390 97.137,240.222 96.969 C 239.897 96.644,235.970 96.524,235.034 96.811 M281.405 96.813 C 280.354 97.133,280.634 97.286,281.722 96.986 C 282.613 96.740,285.598 96.824,286.438 97.119 L 286.888 97.277 286.438 96.990 C 285.869 96.628,282.410 96.506,281.405 96.813 M194.288 97.383 C 194.140 97.709,194.070 98.028,194.133 98.091 C 194.196 98.154,194.354 97.924,194.485 97.580 C 194.794 96.768,194.639 96.613,194.288 97.383 M205.621 97.066 C 205.559 97.228,205.535 100.347,205.568 103.998 L 205.627 110.636 207.485 110.701 L 209.342 110.767 209.342 105.724 L 209.342 100.680 209.961 100.054 C 210.490 99.518,210.507 99.465,210.078 99.691 C 209.194 100.155,209.116 100.638,209.116 105.669 L 209.116 110.523 207.428 110.523 L 205.740 110.523 205.740 103.770 L 205.740 97.017 207.297 97.017 C 208.153 97.017,208.905 97.121,208.968 97.248 C 209.031 97.375,209.057 97.350,209.025 97.192 C 208.943 96.779,205.776 96.662,205.621 97.066 M209.737 97.749 C 209.445 98.028,209.364 98.143,209.556 98.006 C 209.747 97.868,210.107 97.643,210.355 97.506 C 210.602 97.369,210.684 97.253,210.536 97.249 C 210.388 97.246,210.029 97.470,209.737 97.749 M218.629 97.822 C 218.228 98.139,217.797 98.334,217.672 98.257 C 217.547 98.180,217.445 98.224,217.445 98.355 C 217.445 98.754,217.855 98.625,218.831 97.918 C 219.344 97.546,219.672 97.244,219.561 97.245 C 219.450 97.246,219.030 97.506,218.629 97.822 M225.549 97.294 C 225.549 97.329,225.853 97.644,226.224 97.994 C 226.596 98.345,226.841 98.477,226.768 98.288 C 226.659 98.003,225.549 97.098,225.549 97.294 M233.089 97.661 C 232.718 97.891,232.213 98.321,231.968 98.617 C 231.564 99.104,231.586 99.099,232.193 98.564 C 232.562 98.238,233.168 97.811,233.540 97.616 C 233.911 97.420,234.114 97.257,233.990 97.252 C 233.866 97.248,233.461 97.432,233.089 97.661 M241.358 97.716 C 241.696 97.968,242.236 98.497,242.558 98.891 C 242.880 99.284,243.037 99.392,242.908 99.130 C 242.660 98.629,241.178 97.238,240.904 97.250 C 240.815 97.254,241.020 97.463,241.358 97.716 M279.685 97.505 C 279.058 97.850,278.003 98.848,277.729 99.352 C 277.604 99.584,277.942 99.331,278.480 98.790 C 279.019 98.248,279.662 97.685,279.910 97.537 C 280.479 97.199,280.289 97.171,279.685 97.505 M288.039 97.994 C 288.548 98.437,289.093 99.111,289.251 99.492 C 289.408 99.872,289.582 100.138,289.638 100.083 C 289.924 99.796,288.418 97.863,287.563 97.421 C 287.316 97.292,287.530 97.550,288.039 97.994 M198.778 97.580 C 198.778 97.704,198.923 98.059,199.100 98.368 C 199.277 98.678,199.421 98.829,199.421 98.706 C 199.421 98.582,199.277 98.227,199.100 97.918 C 198.923 97.608,198.778 97.456,198.778 97.580 M113.560 102.251 L 109.285 106.584 113.618 102.309 C 116.002 99.958,117.952 98.009,117.952 97.976 C 117.952 97.816,117.532 98.225,113.560 102.251 M86.888 102.363 C 84.474 104.677,81.334 107.733,79.910 109.154 C 77.066 111.994,78.199 110.953,84.421 105.008 C 90.558 99.145,91.582 98.143,91.434 98.150 C 91.348 98.154,89.302 100.050,86.888 102.363 M158.683 99.993 C 159.728 101.073,160.632 101.908,160.690 101.850 C 160.748 101.792,160.750 101.719,160.695 101.688 C 160.640 101.657,159.737 100.822,158.688 99.831 L 156.781 98.030 158.683 99.993 M195.873 98.830 C 196.005 99.207,196.155 99.475,196.206 99.424 C 196.317 99.312,195.892 98.143,195.740 98.143 C 195.682 98.143,195.742 98.452,195.873 98.830 M190.246 99.032 C 190.114 99.410,190.054 99.719,190.113 99.719 C 190.265 99.719,190.690 98.549,190.578 98.438 C 190.527 98.387,190.378 98.654,190.246 99.032 M227.110 99.381 C 227.495 100.655,227.539 100.731,227.557 100.156 C 227.567 99.839,227.424 99.383,227.240 99.143 C 226.929 98.737,226.920 98.754,227.110 99.381 M119.752 99.831 C 120.172 100.264,120.567 100.619,120.629 100.619 C 120.690 100.619,120.397 100.264,119.977 99.831 C 119.558 99.398,119.163 99.043,119.101 99.043 C 119.039 99.043,119.332 99.398,119.752 99.831 M131.223 100.000 C 131.775 100.588,132.256 101.069,132.292 101.069 C 132.461 101.069,132.283 100.867,131.289 99.934 L 130.219 98.931 131.223 100.000 M193.397 99.707 C 193.266 100.085,193.206 100.394,193.264 100.394 C 193.416 100.394,193.841 99.225,193.730 99.113 C 193.679 99.062,193.529 99.329,193.397 99.707 M211.142 99.281 C 210.661 99.454,210.694 99.469,211.367 99.382 C 212.506 99.234,213.890 99.616,214.383 100.214 C 214.617 100.499,214.763 100.586,214.706 100.408 C 214.424 99.520,212.323 98.856,211.142 99.281 M220.484 99.204 C 220.236 99.263,219.939 99.402,219.824 99.511 C 219.708 99.621,219.962 99.609,220.387 99.484 C 220.812 99.359,221.564 99.307,222.060 99.368 C 222.757 99.453,222.833 99.434,222.397 99.283 C 221.771 99.066,221.160 99.041,220.484 99.204 M235.552 99.393 C 235.136 99.727,235.140 99.731,235.642 99.487 C 235.932 99.346,236.759 99.264,237.479 99.306 C 238.199 99.347,238.741 99.305,238.683 99.212 C 238.480 98.887,236.006 99.030,235.552 99.393 M281.923 99.393 C 281.506 99.727,281.511 99.731,282.013 99.487 C 282.303 99.346,283.129 99.264,283.849 99.306 C 284.569 99.347,285.111 99.305,285.053 99.212 C 284.851 98.887,282.376 99.030,281.923 99.393 M199.791 99.944 C 199.874 100.253,200.036 100.658,200.151 100.844 C 200.296 101.079,200.313 101.010,200.209 100.619 C 200.126 100.310,199.964 99.904,199.849 99.719 C 199.704 99.484,199.687 99.553,199.791 99.944 M285.720 99.968 C 285.912 100.292,286.110 100.950,286.159 101.432 L 286.250 102.307 286.282 101.407 C 286.305 100.786,286.169 100.332,285.843 99.944 L 285.371 99.381 285.720 99.968 M234.594 100.280 C 234.259 101.016,231.292 101.160,231.106 100.450 C 231.029 100.154,230.997 100.182,230.977 100.563 C 230.933 101.417,234.462 101.336,234.790 100.475 C 235.083 99.703,234.928 99.548,234.594 100.280 M243.296 104.386 C 243.338 106.957,243.439 109.180,243.521 109.327 C 243.717 109.679,243.580 101.137,243.376 100.334 C 243.290 99.992,243.253 101.815,243.296 104.386 M277.393 100.506 C 277.434 100.912,277.610 100.958,279.182 100.972 L 280.924 100.987 279.250 100.906 C 277.910 100.842,277.553 100.749,277.462 100.441 C 277.377 100.157,277.359 100.174,277.393 100.506 M223.973 105.536 L 224.086 110.636 225.943 110.701 L 227.800 110.767 227.748 105.974 L 227.697 101.182 227.631 105.853 L 227.565 110.523 225.882 110.523 L 224.198 110.523 224.198 105.584 C 224.198 102.868,224.122 100.598,224.029 100.541 C 223.936 100.483,223.911 102.731,223.973 105.536 M271.020 101.068 C 270.605 101.438,270.315 101.791,270.376 101.852 C 270.437 101.913,270.829 101.610,271.247 101.178 C 272.179 100.217,272.046 100.152,271.020 101.068 M189.314 101.165 C 188.980 102.045,189.046 102.183,189.447 101.443 C 189.637 101.092,189.738 100.749,189.669 100.680 C 189.601 100.612,189.441 100.830,189.314 101.165 M218.496 100.769 C 218.413 100.852,218.346 103.076,218.346 105.712 L 218.346 110.504 216.601 110.581 L 214.856 110.658 216.705 110.703 L 218.554 110.748 218.619 105.684 C 218.654 102.898,218.675 100.619,218.664 100.619 C 218.654 100.619,218.578 100.687,218.496 100.769 M192.672 101.463 C 192.215 102.713,192.204 102.762,192.415 102.532 C 192.662 102.265,193.158 100.844,193.005 100.844 C 192.946 100.844,192.796 101.123,192.672 101.463 M200.679 102.127 C 201.017 102.934,201.238 103.299,201.238 103.048 C 201.238 102.805,200.554 101.294,200.444 101.294 C 200.382 101.294,200.488 101.669,200.679 102.127 M289.794 105.121 C 289.794 107.288,289.828 108.174,289.869 107.091 C 289.911 106.007,289.911 104.235,289.869 103.151 C 289.828 102.068,289.794 102.954,289.794 105.121 M71.513 103.689 C 70.299 104.876,69.337 105.878,69.376 105.917 C 69.414 105.955,70.476 104.981,71.735 103.753 C 72.995 102.524,73.957 101.522,73.873 101.525 C 73.789 101.528,72.727 102.502,71.513 103.689 M122.341 102.645 C 122.825 103.140,123.271 103.545,123.333 103.545 C 123.395 103.545,123.050 103.140,122.566 102.645 C 122.083 102.150,121.636 101.745,121.574 101.745 C 121.512 101.745,121.857 102.150,122.341 102.645 M133.483 102.532 C 133.903 102.966,134.298 103.320,134.360 103.320 C 134.421 103.320,134.128 102.966,133.708 102.532 C 133.289 102.099,132.894 101.745,132.832 101.745 C 132.770 101.745,133.063 102.099,133.483 102.532 M197.222 102.082 C 197.221 102.206,197.357 102.662,197.524 103.095 C 197.691 103.528,197.830 103.731,197.834 103.545 C 197.838 103.360,197.702 102.904,197.532 102.532 C 197.362 102.161,197.222 101.958,197.222 102.082 M234.944 102.411 C 234.478 102.501,234.023 102.649,233.932 102.741 C 233.840 102.832,234.019 102.845,234.328 102.770 C 234.637 102.695,235.498 102.547,236.241 102.442 C 237.296 102.292,237.395 102.249,236.691 102.248 C 236.196 102.247,235.410 102.320,234.944 102.411 M281.193 102.417 C 280.784 102.514,280.379 102.668,280.292 102.759 C 280.206 102.851,280.360 102.857,280.634 102.773 C 280.909 102.688,281.770 102.537,282.548 102.436 C 283.787 102.275,283.836 102.251,282.949 102.246 C 282.392 102.243,281.602 102.320,281.193 102.417 M161.873 102.988 C 161.888 103.109,162.977 104.215,164.293 105.445 C 165.609 106.676,168.146 109.107,169.931 110.848 C 171.716 112.588,172.953 113.688,172.680 113.291 C 172.407 112.894,171.909 112.355,171.573 112.093 C 171.237 111.832,169.696 110.387,168.149 108.883 C 166.601 107.379,164.550 105.388,163.590 104.458 C 162.631 103.529,161.858 102.867,161.873 102.988 M232.864 103.133 C 232.220 103.489,231.398 104.262,231.126 104.768 C 230.997 105.007,231.285 104.804,231.765 104.318 C 232.246 103.831,232.842 103.312,233.089 103.165 C 233.659 102.826,233.468 102.799,232.864 103.133 M279.010 103.289 C 278.638 103.518,278.133 103.948,277.888 104.245 C 277.484 104.731,277.506 104.726,278.113 104.191 C 278.482 103.865,279.088 103.439,279.460 103.243 C 279.831 103.048,280.034 102.884,279.910 102.880 C 279.786 102.875,279.381 103.059,279.010 103.289 M201.254 103.433 C 201.254 103.557,201.399 103.911,201.576 104.221 C 201.753 104.530,201.897 104.682,201.897 104.558 C 201.897 104.434,201.753 104.080,201.576 103.770 C 201.399 103.461,201.254 103.309,201.254 103.433 M99.592 104.502 L 98.931 105.234 99.662 104.572 C 100.344 103.956,100.497 103.770,100.323 103.770 C 100.285 103.770,99.956 104.100,99.592 104.502 M270.568 103.885 C 270.568 104.070,272.622 106.697,272.767 106.697 C 272.825 106.697,272.589 106.317,272.242 105.853 C 271.245 104.519,270.568 103.723,270.568 103.885 M236.916 104.209 C 236.484 104.311,236.901 104.362,238.074 104.351 C 239.082 104.341,239.861 104.257,239.805 104.164 C 239.682 103.959,237.849 103.988,236.916 104.209 M283.286 104.216 C 282.885 104.322,283.318 104.346,284.356 104.274 L 286.100 104.155 286.100 105.499 C 286.100 108.069,281.756 109.576,280.848 107.320 C 280.784 107.160,280.726 107.143,280.716 107.281 C 280.659 108.063,282.452 108.683,283.954 108.401 C 285.533 108.105,286.355 107.072,286.279 105.483 L 286.213 104.108 285.087 104.073 C 284.468 104.054,283.658 104.119,283.286 104.216 M187.770 104.884 C 187.638 105.262,187.578 105.571,187.637 105.571 C 187.789 105.571,188.214 104.402,188.102 104.290 C 188.051 104.239,187.902 104.507,187.770 104.884 M125.042 105.571 C 125.652 106.190,126.201 106.697,126.263 106.697 C 126.325 106.697,125.877 106.190,125.267 105.571 C 124.658 104.952,124.108 104.446,124.046 104.446 C 123.984 104.446,124.432 104.952,125.042 105.571 M234.921 104.912 C 234.594 105.169,234.336 105.498,234.345 105.644 C 234.357 105.812,234.407 105.800,234.483 105.609 C 234.549 105.444,234.920 105.115,235.309 104.878 C 235.698 104.641,235.903 104.447,235.765 104.447 C 235.627 104.446,235.247 104.656,234.921 104.912 M281.291 104.912 C 280.965 105.169,280.706 105.498,280.716 105.644 C 280.727 105.812,280.777 105.800,280.853 105.609 C 280.919 105.444,281.291 105.115,281.679 104.878 C 282.068 104.641,282.273 104.447,282.135 104.447 C 281.997 104.446,281.617 104.656,281.291 104.912 M266.460 105.444 L 265.616 106.224 265.616 108.364 L 265.616 110.504 263.872 110.581 L 262.127 110.658 263.984 110.703 L 265.841 110.748 265.841 108.542 C 265.841 106.347,265.845 106.331,266.574 105.625 L 267.307 104.915 269.545 107.832 L 271.784 110.748 273.765 110.748 C 276.135 110.748,276.128 110.772,274.395 108.574 C 273.652 107.631,273.044 106.939,273.044 107.035 C 273.044 107.131,273.602 107.899,274.282 108.742 C 275.824 110.650,275.868 110.525,273.663 110.515 L 271.806 110.506 270.066 108.208 C 269.109 106.943,268.096 105.629,267.815 105.286 L 267.304 104.664 266.460 105.444 M136.522 105.796 C 137.006 106.292,137.452 106.697,137.514 106.697 C 137.576 106.697,137.231 106.292,136.747 105.796 C 136.264 105.301,135.817 104.896,135.756 104.896 C 135.694 104.896,136.039 105.301,136.522 105.796 M230.610 106.303 C 230.534 106.705,230.559 107.266,230.664 107.549 C 230.807 107.936,230.855 107.754,230.855 106.818 C 230.855 105.386,230.802 105.275,230.610 106.303 M186.982 106.734 C 186.778 107.253,186.648 107.714,186.693 107.759 C 186.739 107.804,186.944 107.419,187.151 106.903 C 187.357 106.387,187.487 105.926,187.439 105.878 C 187.391 105.831,187.185 106.216,186.982 106.734 M65.110 109.811 C 62.974 111.891,61.227 113.722,61.227 113.879 C 61.227 114.037,61.625 113.675,62.113 113.076 C 62.600 112.477,64.311 110.771,65.915 109.285 C 68.344 107.036,69.337 106.001,69.042 106.025 C 69.015 106.028,67.245 107.731,65.110 109.811 M190.808 106.397 C 190.726 106.479,190.658 106.651,190.658 106.779 C 190.658 106.918,190.767 106.903,190.929 106.742 C 191.117 106.553,192.338 106.472,194.973 106.472 L 198.748 106.472 199.083 107.091 C 199.483 107.827,199.548 107.636,199.176 106.820 L 198.915 106.246 194.937 106.246 C 192.749 106.246,190.891 106.314,190.808 106.397 M202.936 107.428 C 203.021 107.707,203.182 108.034,203.295 108.155 C 203.409 108.276,203.387 108.048,203.248 107.648 C 202.963 106.830,202.700 106.645,202.936 107.428 M190.233 107.847 C 190.095 108.245,190.020 108.610,190.069 108.658 C 190.117 108.706,190.270 108.420,190.408 108.022 C 190.547 107.624,190.621 107.260,190.573 107.211 C 190.525 107.163,190.372 107.449,190.233 107.847 M234.345 107.319 C 234.317 107.777,235.718 108.496,236.642 108.497 C 237.436 108.497,239.055 107.985,239.055 107.733 C 239.055 107.671,238.703 107.767,238.274 107.946 C 236.886 108.526,234.827 108.186,234.478 107.320 C 234.386 107.091,234.360 107.091,234.345 107.319 M277.112 107.753 C 277.103 108.024,277.198 108.308,277.321 108.385 C 277.588 108.549,277.588 108.329,277.321 107.710 C 277.135 107.276,277.127 107.277,277.112 107.753 M127.856 108.610 C 128.276 109.043,128.670 109.398,128.732 109.398 C 128.794 109.398,128.501 109.043,128.081 108.610 C 127.661 108.177,127.267 107.822,127.205 107.822 C 127.143 107.822,127.436 108.177,127.856 108.610 M139.327 108.779 C 139.878 109.367,140.360 109.848,140.396 109.848 C 140.565 109.848,140.386 109.646,139.392 108.713 L 138.323 107.710 139.327 108.779 M155.560 110.470 C 157.098 111.961,158.390 113.150,158.430 113.111 C 158.528 113.016,153.319 107.959,153.008 107.847 C 152.873 107.798,154.022 108.979,155.560 110.470 M186.193 108.620 C 185.816 109.447,185.888 109.624,186.296 108.871 C 186.486 108.520,186.600 108.190,186.548 108.139 C 186.497 108.087,186.337 108.304,186.193 108.620 M231.128 108.610 C 231.256 108.858,231.648 109.313,232.000 109.622 L 232.639 110.184 231.966 109.397 C 230.898 108.150,230.884 108.136,231.128 108.610 M203.506 108.561 C 203.497 108.658,203.641 109.101,203.827 109.545 C 204.012 109.990,204.164 110.392,204.164 110.438 C 204.164 110.643,200.589 110.501,200.486 110.293 C 200.423 110.166,200.397 110.191,200.429 110.349 C 200.512 110.762,204.396 110.887,204.373 110.476 C 204.353 110.127,203.530 108.309,203.506 108.561 M277.546 108.793 C 277.546 108.832,277.876 109.161,278.278 109.525 L 279.010 110.186 278.348 109.454 C 277.732 108.772,277.546 108.619,277.546 108.793 M105.895 109.904 L 105.234 110.636 105.965 109.975 C 106.367 109.611,106.697 109.282,106.697 109.243 C 106.697 109.069,106.511 109.222,105.895 109.904 M290.062 109.810 L 290.196 110.559 288.394 110.485 C 287.403 110.444,286.639 110.487,286.697 110.580 C 286.755 110.672,287.606 110.748,288.590 110.748 C 290.504 110.748,290.655 110.628,290.137 109.510 C 289.980 109.173,289.961 109.248,290.062 109.810 M189.407 109.934 C 189.239 110.603,185.886 110.877,185.630 110.242 C 185.562 110.074,185.510 110.119,185.499 110.355 C 185.465 111.110,189.253 110.923,189.545 110.154 C 189.669 109.828,189.722 109.512,189.663 109.453 C 189.603 109.393,189.488 109.610,189.407 109.934 M239.493 109.771 C 239.201 110.143,239.204 110.157,239.526 109.906 C 239.827 109.671,239.925 109.716,240.140 110.187 C 240.476 110.925,244.022 111.079,243.989 110.355 C 243.978 110.119,243.926 110.074,243.858 110.242 C 243.730 110.558,240.405 110.654,240.405 110.341 C 240.405 109.724,239.819 109.358,239.493 109.771 M285.890 109.718 C 285.672 109.980,285.707 110.016,286.087 109.917 C 286.342 109.850,286.550 109.706,286.550 109.597 C 286.550 109.293,286.187 109.360,285.890 109.718 M232.870 110.276 C 232.990 110.395,233.393 110.564,233.765 110.652 C 234.636 110.858,234.440 110.666,233.432 110.326 C 233.002 110.180,232.749 110.158,232.870 110.276 M279.240 110.276 C 279.361 110.395,279.764 110.564,280.135 110.652 C 281.006 110.858,280.810 110.666,279.803 110.326 C 279.372 110.180,279.119 110.158,279.240 110.276 M284.412 110.419 C 284.041 110.589,283.889 110.729,284.074 110.730 C 284.260 110.732,284.665 110.588,284.975 110.411 C 285.686 110.004,285.306 110.009,284.412 110.419 M130.332 111.311 C 130.752 111.745,131.146 112.099,131.208 112.099 C 131.270 112.099,130.977 111.745,130.557 111.311 C 130.137 110.878,129.743 110.523,129.681 110.523 C 129.619 110.523,129.912 110.878,130.332 111.311 M141.803 111.480 C 142.355 112.068,142.836 112.549,142.872 112.549 C 143.041 112.549,142.862 112.347,141.868 111.414 L 140.799 110.411 141.803 111.480 M74.181 114.505 C 73.072 115.571,72.282 116.403,72.424 116.354 C 72.684 116.263,76.308 112.792,76.308 112.634 C 76.308 112.469,76.176 112.586,74.181 114.505 M158.694 113.284 C 158.694 113.531,165.626 120.130,166.283 120.508 C 166.467 120.614,165.772 119.905,164.738 118.933 C 163.704 117.962,161.922 116.261,160.777 115.154 C 159.631 114.047,158.694 113.206,158.694 113.284 M133.249 114.406 C 133.801 114.994,134.282 115.476,134.318 115.476 C 134.487 115.476,134.308 115.273,133.315 114.341 L 132.245 113.337 133.249 114.406 M144.626 114.575 C 145.109 115.070,145.556 115.476,145.618 115.476 C 145.679 115.476,145.334 115.070,144.851 114.575 C 144.367 114.080,143.921 113.675,143.859 113.675 C 143.797 113.675,144.142 114.080,144.626 114.575 M173.353 114.805 C 173.694 115.813,173.886 116.009,173.679 115.138 C 173.591 114.766,173.422 114.364,173.304 114.243 C 173.185 114.122,173.208 114.375,173.353 114.805 M60.728 115.507 C 60.604 116.231,60.806 117.831,61.052 118.077 C 61.138 118.163,61.034 115.732,60.922 115.025 C 60.892 114.840,60.805 115.056,60.728 115.507 M147.102 117.276 C 147.585 117.772,148.032 118.177,148.094 118.177 C 148.156 118.177,147.811 117.772,147.327 117.276 C 146.843 116.781,146.397 116.376,146.335 116.376 C 146.273 116.376,146.618 116.781,147.102 117.276 M69.897 118.577 C 68.784 119.640,68.042 120.415,68.247 120.300 C 68.688 120.051,72.075 116.793,71.982 116.705 C 71.948 116.672,71.009 117.514,69.897 118.577 M135.959 117.389 C 136.379 117.822,136.774 118.177,136.836 118.177 C 136.898 118.177,136.605 117.822,136.185 117.389 C 135.765 116.956,135.370 116.601,135.308 116.601 C 135.247 116.601,135.539 116.956,135.959 117.389 M173.293 118.072 C 173.096 118.619,173.016 119.017,173.114 118.956 C 173.325 118.826,173.859 117.285,173.736 117.161 C 173.689 117.114,173.490 117.524,173.293 118.072 M61.421 118.790 C 61.686 119.279,62.994 120.545,63.097 120.411 C 63.137 120.358,62.728 119.882,62.188 119.353 C 61.647 118.823,61.302 118.570,61.421 118.790 M138.548 120.203 C 139.032 120.698,139.478 121.103,139.540 121.103 C 139.602 121.103,139.257 120.698,138.773 120.203 C 138.290 119.707,137.843 119.302,137.781 119.302 C 137.720 119.302,138.065 119.707,138.548 120.203 M149.906 120.259 C 150.839 121.253,151.041 121.431,151.041 121.262 C 151.041 121.226,150.560 120.745,149.972 120.193 L 148.903 119.190 149.906 120.259 M171.807 120.093 C 170.689 120.978,169.253 121.277,167.760 120.935 C 167.055 120.774,166.832 120.777,167.002 120.947 C 167.893 121.838,171.190 121.180,172.427 119.863 C 173.127 119.118,172.962 119.179,171.807 120.093 M66.854 120.695 C 66.421 120.820,65.571 120.875,64.966 120.818 C 64.174 120.742,63.977 120.775,64.260 120.933 C 64.769 121.218,67.231 121.041,67.578 120.694 C 67.725 120.548,67.799 120.437,67.743 120.448 C 67.688 120.459,67.288 120.570,66.854 120.695 M78.445 125.886 L 74.170 130.219 78.503 125.945 C 80.886 123.594,82.836 121.644,82.836 121.612 C 82.836 121.452,82.416 121.860,78.445 125.886 M88.349 127.687 L 82.724 133.371 88.407 127.745 C 93.689 122.517,94.193 122.003,94.033 122.003 C 94.001 122.003,91.444 124.561,88.349 127.687 M141.249 123.129 C 141.859 123.748,142.409 124.254,142.470 124.254 C 142.532 124.254,142.084 123.748,141.474 123.129 C 140.865 122.510,140.315 122.003,140.253 122.003 C 140.191 122.003,140.640 122.510,141.249 123.129 M152.729 123.354 C 153.213 123.849,153.659 124.254,153.721 124.254 C 153.783 124.254,153.438 123.849,152.954 123.354 C 152.471 122.859,152.025 122.454,151.963 122.454 C 151.901 122.454,152.246 122.859,152.729 123.354 M187.215 123.496 C 186.992 123.719,187.024 141.412,187.249 141.766 C 187.381 141.974,187.942 142.038,189.215 141.991 L 190.996 141.925 191.057 137.812 L 191.119 133.699 195.559 133.760 L 200.000 133.821 200.113 137.873 L 200.225 141.925 202.026 141.925 L 203.827 141.925 203.827 132.696 L 203.827 123.467 202.026 123.467 L 200.225 123.467 200.217 127.237 L 200.208 131.008 200.278 127.293 L 200.349 123.579 202.031 123.579 L 203.714 123.579 203.714 132.696 L 203.714 141.812 202.026 141.812 L 200.338 141.812 200.338 137.765 C 200.338 132.935,200.959 133.443,195.160 133.532 L 190.996 133.596 190.935 137.713 L 190.873 141.831 189.134 141.765 L 187.394 141.699 187.336 132.639 L 187.277 123.579 189.075 123.579 L 190.873 123.579 190.934 127.349 L 190.996 131.120 195.385 131.127 L 199.775 131.134 195.447 131.066 L 191.119 130.998 191.058 127.232 L 190.996 123.467 189.185 123.402 C 188.189 123.366,187.302 123.409,187.215 123.496 M143.838 125.943 C 144.510 126.624,145.111 127.181,145.173 127.181 C 145.235 127.181,144.735 126.624,144.063 125.943 C 143.391 125.262,142.790 124.705,142.728 124.705 C 142.666 124.705,143.165 125.262,143.838 125.943 M155.093 125.943 C 155.513 126.376,155.907 126.730,155.969 126.730 C 156.031 126.730,155.738 126.376,155.318 125.943 C 154.898 125.509,154.504 125.155,154.442 125.155 C 154.380 125.155,154.673 125.509,155.093 125.943 M211.874 128.108 C 211.472 128.224,211.142 128.374,211.142 128.440 C 211.142 128.507,211.354 128.494,211.613 128.412 C 211.871 128.330,212.555 128.183,213.132 128.086 C 214.051 127.931,214.084 127.908,213.393 127.903 C 212.960 127.899,212.276 127.992,211.874 128.108 M215.982 128.187 C 216.725 128.348,217.367 128.448,217.410 128.409 C 217.547 128.284,215.775 127.858,215.194 127.876 C 214.885 127.886,215.239 128.026,215.982 128.187 M230.163 128.016 C 229.916 128.076,229.620 128.213,229.507 128.320 C 229.394 128.428,229.647 128.424,230.070 128.312 C 230.493 128.201,231.092 128.066,231.401 128.013 C 231.885 127.931,231.869 127.917,231.289 127.913 C 230.917 127.910,230.411 127.957,230.163 128.016 M233.360 128.092 C 233.881 128.195,234.514 128.390,234.767 128.526 C 235.021 128.661,235.228 128.713,235.228 128.640 C 235.228 128.396,233.672 127.856,233.040 127.881 C 232.561 127.899,232.636 127.949,233.360 128.092 M238.942 128.202 C 238.397 128.464,238.376 128.498,238.829 128.377 C 239.139 128.295,239.747 128.156,240.180 128.068 C 240.948 127.912,240.951 127.907,240.293 127.892 C 239.921 127.883,239.313 128.023,238.942 128.202 M242.704 128.151 C 244.511 128.566,245.366 129.330,245.903 131.007 C 246.081 131.564,246.233 131.824,246.242 131.585 C 246.300 129.980,244.441 128.167,242.536 127.971 L 241.418 127.855 242.704 128.151 M254.024 128.202 C 253.479 128.464,253.457 128.498,253.911 128.377 C 254.221 128.295,254.828 128.156,255.262 128.068 C 256.029 127.912,256.032 127.907,255.374 127.892 C 255.003 127.883,254.395 128.023,254.024 128.202 M257.850 128.167 C 258.593 128.314,259.353 128.522,259.539 128.628 C 259.797 128.777,259.817 128.758,259.622 128.547 C 259.332 128.231,257.894 127.859,257.062 127.883 C 256.753 127.893,257.107 128.020,257.850 128.167 M268.799 128.114 C 267.594 128.461,268.078 128.507,269.555 128.187 C 270.356 128.013,270.631 127.894,270.231 127.895 C 269.859 127.896,269.215 127.994,268.799 128.114 M273.157 128.187 C 273.900 128.348,274.542 128.448,274.585 128.409 C 274.722 128.284,272.950 127.858,272.369 127.876 C 272.060 127.886,272.414 128.026,273.157 128.187 M146.652 128.981 C 147.135 129.477,147.582 129.882,147.643 129.882 C 147.705 129.882,147.360 129.477,146.877 128.981 C 146.393 128.486,145.947 128.081,145.885 128.081 C 145.823 128.081,146.168 128.486,146.652 128.981 M158.010 129.038 C 158.943 130.032,159.145 130.210,159.145 130.041 C 159.145 130.005,158.663 129.524,158.075 128.972 L 157.006 127.968 158.010 129.038 M225.928 128.248 C 227.222 128.310,227.565 128.402,227.646 128.710 C 227.719 128.987,227.755 128.953,227.774 128.588 C 227.799 128.100,227.734 128.083,226.055 128.126 L 224.311 128.170 225.928 128.248 M237.260 129.123 L 236.557 129.715 235.972 129.179 L 235.388 128.644 235.784 129.263 C 236.002 129.603,236.295 129.878,236.436 129.873 C 236.701 129.863,238.360 128.531,238.107 128.531 C 238.028 128.531,237.647 128.798,237.260 129.123 M208.960 129.990 C 208.303 130.668,207.766 131.341,207.766 131.487 C 207.766 131.632,208.059 131.346,208.417 130.851 C 208.775 130.357,209.408 129.684,209.824 129.357 C 210.240 129.029,210.484 128.760,210.367 128.759 C 210.250 128.757,209.617 129.311,208.960 129.990 M218.120 128.800 C 219.560 130.139,220.412 130.801,219.696 130.024 C 219.263 129.554,218.706 129.063,218.458 128.932 C 218.210 128.802,218.059 128.742,218.120 128.800 M260.113 128.929 C 260.230 129.023,260.630 129.352,261.002 129.659 L 261.677 130.218 261.016 129.487 C 260.652 129.085,260.252 128.756,260.127 128.756 C 259.985 128.756,259.980 128.822,260.113 128.929 M275.408 128.901 C 276.554 129.918,276.976 130.215,276.534 129.692 C 276.289 129.402,275.885 129.061,275.636 128.933 C 275.387 128.806,275.284 128.791,275.408 128.901 M251.058 129.938 C 250.550 130.502,250.231 131.007,250.382 131.007 C 250.437 131.007,250.752 130.653,251.082 130.219 C 251.760 129.331,251.746 129.173,251.058 129.938 M212.990 130.524 C 212.827 130.627,213.233 130.664,213.910 130.608 C 215.757 130.455,216.899 131.187,217.539 132.936 C 217.753 133.519,217.869 133.660,217.879 133.348 C 217.940 131.542,214.509 129.560,212.990 130.524 M229.432 130.564 C 228.669 130.871,228.823 131.019,229.616 130.743 C 230.561 130.414,232.003 130.644,232.843 131.259 C 233.368 131.643,233.456 131.666,233.202 131.353 C 232.490 130.477,230.622 130.086,229.432 130.564 M238.717 130.648 C 238.346 130.812,237.840 131.188,237.593 131.483 L 237.144 132.020 237.706 131.529 C 238.541 130.797,239.497 130.509,240.630 130.649 C 241.335 130.736,241.506 130.711,241.193 130.569 C 240.541 130.272,239.493 130.305,238.717 130.648 M254.558 130.783 C 254.108 131.021,253.677 131.380,253.600 131.582 C 253.505 131.828,253.684 131.760,254.142 131.375 C 255.147 130.529,256.372 130.366,257.850 130.881 C 258.148 130.985,258.109 130.921,257.738 130.693 C 256.970 130.222,255.543 130.263,254.558 130.783 M269.219 130.894 C 268.928 131.203,268.759 131.524,268.842 131.607 C 268.925 131.690,268.993 131.638,268.993 131.492 C 268.993 131.345,269.322 131.025,269.724 130.780 C 270.130 130.532,270.298 130.333,270.101 130.333 C 269.906 130.332,269.509 130.585,269.219 130.894 M272.582 130.580 C 272.885 130.701,273.244 130.872,273.381 130.960 C 273.517 131.048,273.435 130.943,273.199 130.726 C 272.963 130.509,272.603 130.338,272.400 130.346 C 272.167 130.355,272.234 130.441,272.582 130.580 M276.991 130.518 C 277.076 130.683,277.226 131.088,277.326 131.419 C 277.472 131.901,277.512 131.929,277.527 131.557 C 277.538 131.302,277.387 130.897,277.192 130.656 C 276.997 130.416,276.907 130.354,276.991 130.518 M211.616 131.578 C 211.232 132.016,210.920 132.497,210.924 132.647 C 210.928 132.798,211.043 132.718,211.179 132.470 C 211.316 132.223,211.686 131.742,212.002 131.401 C 212.319 131.061,212.518 130.782,212.446 130.782 C 212.374 130.782,212.000 131.140,211.616 131.578 M228.172 131.419 C 227.849 131.776,227.800 132.493,227.800 136.812 L 227.800 141.793 226.055 141.875 L 224.311 141.957 226.111 141.941 L 227.912 141.925 227.973 136.873 C 228.025 132.569,228.088 131.761,228.402 131.414 C 228.604 131.190,228.719 131.007,228.657 131.007 C 228.595 131.007,228.377 131.193,228.172 131.419 M265.261 131.560 C 265.185 131.865,265.216 132.395,265.330 132.739 C 265.509 133.274,265.536 133.196,265.521 132.186 C 265.502 130.863,265.461 130.765,265.261 131.560 M149.465 132.020 C 149.885 132.454,150.280 132.808,150.342 132.808 C 150.403 132.808,150.110 132.454,149.690 132.020 C 149.271 131.587,148.876 131.232,148.814 131.232 C 148.752 131.232,149.045 131.587,149.465 132.020 M242.358 131.458 C 242.460 131.643,242.599 134.024,242.666 136.747 L 242.789 141.699 242.835 136.847 C 242.874 132.720,242.828 131.928,242.527 131.557 C 242.332 131.316,242.256 131.272,242.358 131.458 M249.722 132.045 C 249.535 132.491,249.424 132.898,249.473 132.947 C 249.523 132.997,249.724 132.632,249.919 132.135 C 250.360 131.013,250.187 130.933,249.722 132.045 M220.859 132.144 C 220.991 132.522,221.141 132.789,221.192 132.738 C 221.303 132.627,220.878 131.458,220.726 131.458 C 220.668 131.458,220.728 131.767,220.859 132.144 M262.365 131.795 C 262.453 132.043,262.574 133.079,262.635 134.098 L 262.746 135.951 257.709 136.018 L 252.673 136.086 257.738 136.079 L 262.802 136.072 262.794 134.159 C 262.790 132.992,262.673 132.070,262.496 131.795 L 262.206 131.345 262.365 131.795 M273.802 131.757 C 273.881 131.984,273.945 132.212,273.945 132.264 C 273.945 132.316,274.781 132.338,275.802 132.313 L 277.659 132.268 275.971 132.194 C 274.710 132.138,274.204 132.021,273.971 131.732 C 273.679 131.370,273.668 131.372,273.802 131.757 M207.342 132.605 C 207.065 133.399,207.027 136.729,207.287 137.391 C 207.377 137.621,207.409 136.841,207.357 135.658 C 207.302 134.393,207.367 133.210,207.516 132.784 C 207.654 132.386,207.729 132.020,207.680 131.972 C 207.632 131.924,207.480 132.209,207.342 132.605 M237.026 136.860 L 236.916 141.699 235.340 141.699 L 233.765 141.699 233.643 136.972 L 233.521 132.245 233.530 137.085 L 233.540 141.925 235.288 141.990 C 237.444 142.072,237.278 142.528,237.200 136.742 L 237.136 132.020 237.026 136.860 M252.996 132.734 C 252.556 133.893,252.719 133.952,256.195 133.884 C 258.563 133.837,259.404 133.747,259.447 133.534 C 259.479 133.376,259.453 133.351,259.390 133.478 C 259.294 133.672,253.011 133.842,253.011 133.651 C 253.011 133.619,253.105 133.264,253.220 132.863 C 253.473 131.982,253.316 131.893,252.996 132.734 M268.785 132.285 C 268.765 132.588,269.827 133.484,270.205 133.483 C 270.343 133.482,270.138 133.288,269.749 133.051 C 269.361 132.814,268.989 132.485,268.923 132.320 C 268.847 132.130,268.797 132.117,268.785 132.285 M221.324 134.159 C 221.324 134.592,221.370 134.769,221.427 134.553 C 221.484 134.336,221.484 133.981,221.427 133.765 C 221.370 133.548,221.324 133.725,221.324 134.159 M265.616 133.554 C 265.616 133.593,265.945 133.922,266.348 134.285 L 267.079 134.947 266.418 134.215 C 265.802 133.533,265.616 133.380,265.616 133.554 M271.131 133.680 C 271.379 133.784,271.986 133.933,272.482 134.010 C 273.053 134.100,273.218 134.082,272.932 133.962 C 272.684 133.858,272.077 133.709,271.581 133.632 C 271.010 133.542,270.845 133.560,271.131 133.680 M151.829 134.609 C 152.312 135.104,152.759 135.509,152.821 135.509 C 152.883 135.509,152.538 135.104,152.054 134.609 C 151.570 134.114,151.124 133.708,151.062 133.708 C 151.000 133.708,151.345 134.114,151.829 134.609 M217.960 134.947 C 217.961 135.566,218.005 135.792,218.057 135.450 C 218.109 135.108,218.107 134.601,218.054 134.324 C 218.000 134.048,217.958 134.328,217.960 134.947 M249.251 135.284 C 249.251 135.965,249.294 136.244,249.345 135.903 C 249.397 135.563,249.397 135.006,249.345 134.665 C 249.294 134.325,249.251 134.603,249.251 135.284 M210.519 135.059 C 210.519 135.492,210.566 135.670,210.622 135.453 C 210.679 135.236,210.679 134.882,210.622 134.665 C 210.566 134.449,210.519 134.626,210.519 135.059 M267.192 134.976 C 267.192 135.128,268.798 135.779,268.907 135.670 C 268.957 135.620,268.591 135.420,268.095 135.225 C 267.598 135.030,267.192 134.918,267.192 134.976 M276.560 135.724 C 276.822 136.039,277.148 136.500,277.284 136.747 C 277.421 136.995,277.536 137.069,277.540 136.913 C 277.543 136.756,277.217 136.296,276.815 135.889 C 276.412 135.483,276.298 135.409,276.560 135.724 M221.324 135.959 C 221.324 136.393,221.370 136.570,221.427 136.353 C 221.484 136.137,221.484 135.782,221.427 135.566 C 221.370 135.349,221.324 135.526,221.324 135.959 M271.131 136.313 C 271.750 136.485,272.358 136.617,272.482 136.607 C 272.863 136.574,270.935 135.994,270.456 135.997 C 270.208 135.998,270.512 136.141,271.131 136.313 M217.523 137.085 C 217.393 137.572,217.365 137.922,217.461 137.863 C 217.660 137.740,217.984 136.424,217.849 136.288 C 217.800 136.239,217.653 136.597,217.523 137.085 M252.794 136.604 C 252.780 137.106,253.682 138.551,254.209 138.870 C 254.611 139.114,254.590 139.051,254.092 138.520 C 253.759 138.164,253.332 137.518,253.144 137.085 C 252.957 136.652,252.799 136.435,252.794 136.604 M210.924 137.388 C 210.911 137.744,211.680 138.871,212.026 139.004 C 212.257 139.093,212.216 138.966,211.899 138.617 C 211.641 138.331,211.317 137.895,211.180 137.648 C 211.043 137.400,210.928 137.283,210.924 137.388 M273.832 138.154 C 273.832 138.894,273.735 139.047,273.044 139.392 C 272.611 139.608,272.420 139.786,272.620 139.786 C 273.360 139.787,274.170 138.896,274.170 138.082 C 274.170 137.657,274.094 137.310,274.001 137.310 C 273.908 137.310,273.832 137.690,273.832 138.154 M259.876 138.589 C 259.399 139.005,259.366 139.068,259.764 138.803 C 260.744 138.152,260.899 138.142,261.520 138.688 L 262.127 139.223 261.581 138.604 C 260.913 137.846,260.732 137.844,259.876 138.589 M216.488 138.770 C 215.719 139.447,214.466 139.700,213.353 139.403 C 212.888 139.279,212.558 139.260,212.621 139.360 C 212.805 139.659,214.233 139.848,215.092 139.687 C 215.719 139.569,217.679 138.222,217.220 138.224 C 217.158 138.224,216.829 138.470,216.488 138.770 M207.779 138.573 C 207.729 139.516,211.119 142.056,212.380 142.020 C 212.628 142.013,212.425 141.879,211.930 141.722 C 210.131 141.153,209.038 140.314,208.061 138.752 C 207.913 138.516,207.786 138.435,207.779 138.573 M264.946 138.676 C 264.939 139.193,266.448 140.870,267.271 141.258 C 267.661 141.443,267.787 141.465,267.551 141.309 C 266.544 140.640,265.650 139.741,265.313 139.057 C 265.114 138.653,264.949 138.482,264.946 138.676 M268.667 138.905 C 268.821 139.154,270.127 139.852,270.236 139.743 C 270.278 139.702,269.913 139.449,269.425 139.181 C 268.937 138.914,268.596 138.789,268.667 138.905 M219.686 139.842 C 219.268 140.369,219.104 140.656,219.322 140.481 C 219.731 140.152,220.696 138.886,220.537 138.886 C 220.487 138.886,220.105 139.316,219.686 139.842 M255.030 139.419 C 255.361 139.751,258.537 139.752,258.868 139.422 C 259.054 139.235,258.816 139.230,257.960 139.399 C 257.169 139.555,256.477 139.555,255.788 139.397 C 255.036 139.225,254.841 139.230,255.030 139.419 M250.310 139.406 C 250.310 139.445,250.639 139.774,251.041 140.138 L 251.773 140.799 251.112 140.068 C 250.495 139.386,250.310 139.232,250.310 139.406 M275.977 140.810 C 275.547 141.114,275.294 141.361,275.414 141.361 C 275.535 141.360,275.937 141.111,276.308 140.806 C 277.176 140.095,276.986 140.098,275.977 140.810 M273.945 141.730 L 272.932 142.040 273.813 141.934 C 274.297 141.876,274.799 141.723,274.927 141.595 C 275.055 141.467,275.115 141.375,275.059 141.391 C 275.003 141.407,274.502 141.560,273.945 141.730 M216.207 141.812 C 215.584 141.971,215.575 141.986,216.095 142.007 C 216.404 142.020,216.809 141.932,216.995 141.812 C 217.378 141.564,217.180 141.564,216.207 141.812 M253.686 141.812 C 253.872 141.932,254.277 142.022,254.586 142.011 L 255.149 141.992 254.586 141.812 C 253.719 141.534,253.256 141.534,253.686 141.812 M258.751 141.812 C 258.467 141.934,258.425 142.005,258.638 142.005 C 258.824 142.005,259.178 141.918,259.426 141.812 C 259.710 141.690,259.751 141.619,259.539 141.619 C 259.353 141.619,258.998 141.706,258.751 141.812 M268.430 141.812 C 268.678 141.918,269.083 142.003,269.330 141.999 C 269.692 141.994,269.670 141.957,269.218 141.812 C 268.448 141.566,267.856 141.566,268.430 141.812 M243.731 141.977 C 244.261 142.025,245.071 142.024,245.532 141.976 C 245.993 141.927,245.560 141.888,244.569 141.889 C 243.579 141.890,243.202 141.930,243.731 141.977 M213.566 142.200 C 213.971 142.250,214.579 142.249,214.917 142.198 C 215.255 142.147,214.924 142.106,214.181 142.107 C 213.438 142.108,213.162 142.150,213.566 142.200 M255.881 142.200 C 256.283 142.250,256.941 142.250,257.344 142.200 C 257.746 142.150,257.417 142.109,256.612 142.109 C 255.808 142.109,255.478 142.150,255.881 142.200 M270.737 142.200 C 271.140 142.250,271.798 142.250,272.200 142.200 C 272.603 142.150,272.273 142.109,271.469 142.109 C 270.664 142.109,270.335 142.150,270.737 142.200 " stroke="none" fill="#555555" fill-rule="evenodd"></path><path id="path3" d="M121.328 89.477 C 121.748 89.910,122.142 90.264,122.204 90.264 C 122.266 90.264,121.973 89.910,121.553 89.477 C 121.133 89.043,120.739 88.689,120.677 88.689 C 120.615 88.689,120.908 89.043,121.328 89.477 M247.997 91.327 C 248.397 91.377,249.106 91.378,249.573 91.329 C 250.040 91.280,249.713 91.240,248.846 91.239 C 247.980 91.238,247.598 91.278,247.997 91.327 M263.304 91.327 C 263.704 91.377,264.413 91.378,264.880 91.329 C 265.347 91.280,265.020 91.240,264.153 91.239 C 263.286 91.238,262.904 91.278,263.304 91.327 M123.804 92.178 C 124.224 92.611,124.618 92.966,124.680 92.966 C 124.742 92.966,124.449 92.611,124.029 92.178 C 123.609 91.745,123.215 91.390,123.153 91.390 C 123.091 91.390,123.384 91.745,123.804 92.178 M262.343 100.957 C 262.343 106.280,262.372 108.426,262.408 105.725 C 262.444 103.024,262.444 98.668,262.408 96.046 C 262.372 93.423,262.343 95.633,262.343 100.957 M126.618 95.217 C 127.101 95.712,127.548 96.117,127.610 96.117 C 127.672 96.117,127.327 95.712,126.843 95.217 C 126.359 94.721,125.913 94.316,125.851 94.316 C 125.789 94.316,126.134 94.721,126.618 95.217 M129.432 98.255 C 129.852 98.689,130.246 99.043,130.308 99.043 C 130.370 99.043,130.077 98.689,129.657 98.255 C 129.237 97.822,128.842 97.468,128.781 97.468 C 128.719 97.468,129.012 97.822,129.432 98.255 M118.739 98.593 C 119.223 99.088,119.669 99.494,119.731 99.494 C 119.793 99.494,119.448 99.088,118.965 98.593 C 118.481 98.098,118.035 97.693,117.973 97.693 C 117.911 97.693,118.256 98.098,118.739 98.593 M255.592 101.125 L 254.249 102.532 255.656 101.189 C 256.962 99.941,257.165 99.719,256.999 99.719 C 256.964 99.719,256.331 100.352,255.592 101.125 M131.908 100.957 C 132.328 101.390,132.722 101.745,132.784 101.745 C 132.846 101.745,132.553 101.390,132.133 100.957 C 131.713 100.523,131.319 100.169,131.257 100.169 C 131.195 100.169,131.488 100.523,131.908 100.957 M121.544 101.576 C 122.477 102.570,122.679 102.748,122.679 102.579 C 122.679 102.543,122.198 102.062,121.609 101.510 L 120.540 100.506 121.544 101.576 M251.533 101.351 L 250.872 102.082 251.604 101.421 C 252.006 101.057,252.335 100.728,252.335 100.689 C 252.335 100.516,252.150 100.669,251.533 101.351 M238.102 102.358 C 238.507 102.408,239.114 102.407,239.453 102.356 C 239.791 102.304,239.460 102.263,238.717 102.264 C 237.974 102.266,237.697 102.308,238.102 102.358 M284.356 102.356 C 284.696 102.408,285.253 102.408,285.594 102.356 C 285.934 102.304,285.656 102.262,284.975 102.262 C 284.294 102.262,284.015 102.304,284.356 102.356 M134.721 103.995 C 135.205 104.491,135.651 104.896,135.713 104.896 C 135.775 104.896,135.430 104.491,134.947 103.995 C 134.463 103.500,134.017 103.095,133.955 103.095 C 133.893 103.095,134.238 103.500,134.721 103.995 M124.029 104.333 C 124.449 104.766,124.844 105.121,124.905 105.121 C 124.967 105.121,124.674 104.766,124.254 104.333 C 123.834 103.900,123.440 103.545,123.378 103.545 C 123.316 103.545,123.609 103.900,124.029 104.333 M97.693 106.584 C 97.146 107.141,96.749 107.597,96.811 107.597 C 96.873 107.597,97.371 107.141,97.918 106.584 C 98.465 106.027,98.861 105.571,98.799 105.571 C 98.738 105.571,98.240 106.027,97.693 106.584 M277.148 106.697 C 277.148 107.130,277.195 107.307,277.251 107.091 C 277.308 106.874,277.308 106.519,277.251 106.303 C 277.195 106.086,277.148 106.263,277.148 106.697 M137.535 107.034 C 137.955 107.468,138.349 107.822,138.411 107.822 C 138.473 107.822,138.180 107.468,137.760 107.034 C 137.340 106.601,136.946 106.246,136.884 106.246 C 136.822 106.246,137.115 106.601,137.535 107.034 M129.647 110.355 C 130.199 110.943,130.680 111.424,130.717 111.424 C 130.886 111.424,130.707 111.222,129.713 110.289 L 128.644 109.285 129.647 110.355 M92.290 111.986 C 91.368 112.915,90.664 113.675,90.726 113.675 C 90.788 113.675,91.593 112.915,92.515 111.986 C 93.438 111.058,94.142 110.298,94.080 110.298 C 94.018 110.298,93.213 111.058,92.290 111.986 M103.869 111.930 L 103.208 112.662 103.939 112.001 C 104.342 111.637,104.671 111.308,104.671 111.269 C 104.671 111.095,104.485 111.248,103.869 111.930 M142.703 112.606 C 143.255 113.194,143.736 113.675,143.772 113.675 C 143.941 113.675,143.763 113.473,142.769 112.540 L 141.699 111.536 142.703 112.606 M132.020 112.999 C 132.504 113.495,132.950 113.900,133.012 113.900 C 133.074 113.900,132.729 113.495,132.245 112.999 C 131.762 112.504,131.315 112.099,131.254 112.099 C 131.192 112.099,131.537 112.504,132.020 112.999 M88.459 115.869 L 86.550 117.839 88.520 115.931 C 90.349 114.158,90.592 113.900,90.428 113.900 C 90.395 113.900,89.508 114.786,88.459 115.869 M144.963 115.096 C 144.963 115.134,145.293 115.464,145.695 115.827 L 146.427 116.488 145.765 115.757 C 145.149 115.075,144.963 114.922,144.963 115.096 M94.091 121.666 C 90.564 125.194,87.729 128.081,87.791 128.081 C 87.853 128.081,90.789 125.194,94.316 121.666 C 97.843 118.137,100.678 115.250,100.616 115.250 C 100.554 115.250,97.618 118.137,94.091 121.666 M148.115 118.514 C 148.535 118.948,148.929 119.302,148.991 119.302 C 149.053 119.302,148.760 118.948,148.340 118.514 C 147.920 118.081,147.526 117.727,147.464 117.727 C 147.402 117.727,147.695 118.081,148.115 118.514 M136.860 118.247 C 136.860 118.286,137.189 118.615,137.591 118.979 L 138.323 119.640 137.662 118.908 C 137.046 118.226,136.860 118.073,136.860 118.247 M151.041 121.666 C 151.461 122.099,151.855 122.454,151.917 122.454 C 151.979 122.454,151.686 122.099,151.266 121.666 C 150.846 121.232,150.452 120.878,150.390 120.878 C 150.328 120.878,150.621 121.232,151.041 121.666 M140.349 122.003 C 140.832 122.499,141.279 122.904,141.341 122.904 C 141.403 122.904,141.058 122.499,140.574 122.003 C 140.090 121.508,139.644 121.103,139.582 121.103 C 139.520 121.103,139.865 121.508,140.349 122.003 M153.283 124.086 C 153.835 124.674,154.316 125.155,154.352 125.155 C 154.521 125.155,154.342 124.953,153.348 124.020 L 152.279 123.016 153.283 124.086 M187.385 132.583 C 187.385 137.597,187.414 139.648,187.450 137.141 C 187.487 134.634,187.487 130.532,187.450 128.025 C 187.414 125.518,187.385 127.569,187.385 132.583 M148.452 130.782 C 148.936 131.277,149.382 131.683,149.444 131.683 C 149.506 131.683,149.161 131.277,148.678 130.782 C 148.194 130.287,147.748 129.882,147.686 129.882 C 147.624 129.882,147.969 130.287,148.452 130.782 M73.485 140.687 C 73.485 145.701,73.514 147.752,73.551 145.245 C 73.587 142.738,73.587 138.635,73.551 136.128 C 73.514 133.621,73.485 135.672,73.485 140.687 M236.899 136.972 C 236.899 139.572,236.932 140.605,236.972 139.267 C 237.012 137.930,237.011 135.803,236.971 134.540 C 236.931 133.278,236.899 134.373,236.899 136.972 M151.041 133.596 C 151.461 134.029,151.855 134.384,151.917 134.384 C 151.979 134.384,151.686 134.029,151.266 133.596 C 150.846 133.163,150.452 132.808,150.390 132.808 C 150.328 132.808,150.621 133.163,151.041 133.596 M233.747 137.198 C 233.747 139.674,233.779 140.717,233.820 139.517 C 233.860 138.316,233.860 136.290,233.820 135.015 C 233.780 133.739,233.747 134.721,233.747 137.198 M153.018 141.034 L 153.082 146.538 116.721 146.596 L 80.360 146.654 116.770 146.653 L 153.180 146.652 153.240 141.265 C 153.273 138.302,153.223 135.800,153.127 135.704 C 153.032 135.609,152.983 138.008,153.018 141.034 M265.780 137.698 C 266.180 137.747,266.889 137.748,267.356 137.699 C 267.823 137.651,267.496 137.610,266.629 137.609 C 265.763 137.608,265.380 137.648,265.780 137.698 " stroke="none" fill="#255a85" fill-rule="evenodd"></path><path id="path4" d="M116.222 88.030 C 115.690 88.293,114.888 89.004,114.380 89.662 C 113.535 90.755,108.849 95.518,83.918 120.624 C 75.708 128.892,73.833 130.893,73.722 131.501 C 73.647 131.910,73.616 136.368,73.653 141.406 L 73.720 150.566 74.465 151.335 C 75.770 152.681,73.658 152.617,116.488 152.617 C 159.625 152.617,157.222 152.693,158.712 151.275 C 159.999 150.049,160.058 149.565,160.036 140.432 C 160.013 130.657,160.209 131.465,157.033 128.081 C 154.600 125.488,152.237 122.953,151.152 121.769 C 146.874 117.107,144.478 114.507,143.381 113.337 C 142.684 112.594,141.656 111.480,141.097 110.861 C 140.537 110.242,139.611 109.229,139.039 108.610 C 138.467 107.991,134.071 103.220,129.269 98.007 C 119.041 86.901,118.829 86.739,116.222 88.030 M205.840 103.770 C 205.840 107.546,205.871 109.091,205.908 107.203 C 205.946 105.315,205.946 102.226,205.908 100.338 C 205.871 98.450,205.840 99.994,205.840 103.770 M121.459 101.327 C 123.306 103.326,125.002 105.175,125.229 105.435 C 125.630 105.898,126.082 106.385,129.317 109.849 C 130.185 110.778,131.857 112.595,133.033 113.886 C 135.477 116.571,137.369 118.623,139.786 121.214 C 140.715 122.209,142.032 123.636,142.712 124.384 C 143.393 125.133,145.680 127.613,147.795 129.896 C 149.909 132.178,152.013 134.466,152.470 134.978 L 153.300 135.911 153.240 141.281 L 153.180 146.652 116.770 146.709 L 80.360 146.766 80.361 141.194 L 80.361 135.622 84.237 131.683 C 88.271 127.584,118.027 97.693,118.074 97.693 C 118.089 97.693,119.612 99.328,121.459 101.327 M232.175 98.649 L 231.514 99.381 232.245 98.720 C 232.648 98.356,232.977 98.027,232.977 97.988 C 232.977 97.814,232.791 97.967,232.175 98.649 M231.323 100.675 C 231.381 100.768,232.074 100.844,232.864 100.844 C 233.654 100.844,234.348 100.768,234.405 100.675 C 234.463 100.582,233.769 100.506,232.864 100.506 C 231.959 100.506,231.266 100.582,231.323 100.675 M278.278 100.783 C 278.742 100.832,279.502 100.832,279.966 100.783 C 280.431 100.734,280.051 100.695,279.122 100.695 C 278.194 100.695,277.814 100.734,278.278 100.783 M208.987 105.684 C 208.987 108.407,209.020 109.491,209.060 108.091 C 209.099 106.691,209.099 104.463,209.059 103.139 C 209.020 101.815,208.987 102.960,208.987 105.684 M240.007 101.519 C 240.007 101.953,240.054 102.130,240.110 101.913 C 240.167 101.697,240.167 101.342,240.110 101.125 C 240.054 100.909,240.007 101.086,240.007 101.519 M243.197 104.221 C 243.197 106.140,243.231 106.925,243.274 105.965 C 243.316 105.006,243.316 103.436,243.274 102.476 C 243.231 101.517,243.197 102.302,243.197 104.221 M215.064 105.909 C 215.065 108.509,215.097 109.541,215.137 108.204 C 215.177 106.866,215.177 104.739,215.137 103.477 C 215.097 102.215,215.064 103.309,215.064 105.909 M218.188 102.420 C 218.188 103.101,218.230 103.379,218.282 103.039 C 218.333 102.698,218.333 102.141,218.282 101.801 C 218.230 101.460,218.188 101.739,218.188 102.420 M224.293 106.021 C 224.293 108.559,224.326 109.598,224.366 108.329 C 224.406 107.060,224.406 104.983,224.366 103.714 C 224.326 102.445,224.293 103.483,224.293 106.021 M227.444 106.021 C 227.444 108.559,227.477 109.598,227.517 108.329 C 227.557 107.060,227.557 104.983,227.517 103.714 C 227.477 102.445,227.444 103.483,227.444 106.021 M193.416 103.937 C 194.252 103.981,195.619 103.981,196.455 103.937 C 197.290 103.894,196.607 103.859,194.935 103.859 C 193.264 103.859,192.580 103.894,193.416 103.937 M239.952 105.617 C 239.892 106.447,239.924 107.044,240.023 106.944 C 240.123 106.844,240.172 106.165,240.133 105.435 L 240.062 104.108 239.952 105.617 M277.374 137.985 C 277.374 138.419,277.420 138.596,277.476 138.379 C 277.533 138.163,277.533 137.808,277.476 137.591 C 277.420 137.375,277.374 137.552,277.374 137.985 M188.239 141.751 C 188.703 141.799,189.463 141.799,189.927 141.751 C 190.391 141.702,190.011 141.663,189.083 141.663 C 188.154 141.663,187.774 141.702,188.239 141.751 M201.188 141.752 C 201.717 141.800,202.528 141.799,202.989 141.751 C 203.449 141.702,203.016 141.663,202.026 141.664 C 201.035 141.665,200.658 141.705,201.188 141.752 M225.273 141.752 C 225.803 141.800,226.613 141.799,227.074 141.751 C 227.535 141.702,227.102 141.663,226.111 141.664 C 225.121 141.665,224.744 141.705,225.273 141.752 M234.491 141.749 C 234.891 141.799,235.600 141.800,236.067 141.751 C 236.534 141.702,236.207 141.662,235.340 141.661 C 234.474 141.660,234.092 141.700,234.491 141.749 M243.613 141.751 C 244.077 141.799,244.837 141.799,245.301 141.751 C 245.765 141.702,245.385 141.663,244.457 141.663 C 243.528 141.663,243.149 141.702,243.613 141.751 M271.750 141.967 C 271.967 142.024,272.321 142.024,272.538 141.967 C 272.755 141.911,272.577 141.864,272.144 141.864 C 271.711 141.864,271.533 141.911,271.750 141.967 " stroke="none" fill="#255a85" fill-rule="evenodd"></path></g></svg>