<svg version="1.2" xmlns="http://www.w3.org/2000/svg" viewBox="0 0 1280 720" width="1280" height="720">
	<title>logo-b</title>
	<style>
		.s0 { fill: #255a85 } 
		.s1 { fill: #940909 } 
	</style>
	<g id="logo">
		<path id="Shape 4" class="s0" d="m438 478.5c0-5.2 4.3-9.5 9.5-9.5h253c5.2 0 9.5 4.3 9.5 9.5 0 5.2-4.3 9.5-9.5 9.5h-253c-5.2 0-9.5-4.3-9.5-9.5z"/>
		<path id="Shape 3 copy" class="s0" d="m691 431c0-6.1 4.9-11 11-11 6.1 0 11 4.9 11 11v45c0 6.1-4.9 11-11 11-6.1 0-11-4.9-11-11z"/>
		<path id="Shape 3" class="s0" d="m436 424c0-6.1 4.9-11 11-11 6.1 0 11 4.9 11 11v53c0 6.1-4.9 11-11 11-6.1 0-11-4.9-11-11z"/>
		<path id="Shape 2 copy" class="s0" d="m709.1 434.7c-5.3 4.9-13.6 4.5-18.5-0.8l-121.9-132c-4.9-5.3-4.6-13.6 0.7-18.5 5.3-4.9 13.6-4.6 18.5 0.7l121.9 132.1c4.9 5.3 4.6 13.6-0.7 18.5z"/>
		<path id="Shape 2" class="s0" d="m439.8 434.2c-5.2-5.1-5.2-13.4-0.1-18.6l126.5-127.6c5.1-5.2 13.3-5.2 18.5-0.1 5.1 5.1 5.2 13.4 0.1 18.5l-126.5 127.7c-5.1 5.1-13.4 5.2-18.5 0.1z"/>
		<g id="roof">
			<path id="Shape 1 copy" class="s1" d="m565.5 204.3c5.8-6.1 15.6-6.3 21.7-0.5l165 157.4c6.2 5.8 6.4 15.6 0.5 21.7-5.8 6.2-15.6 6.4-21.7 0.5l-165-157.3c-6.2-5.9-6.4-15.6-0.5-21.8z"/>
			<path id="Shape 1" class="s1" d="m399.8 382.3c-5.9-6.2-5.7-15.9 0.5-21.8l164.8-157.5c6.1-5.9 15.9-5.7 21.7 0.5 5.9 6.1 5.7 15.8-0.5 21.7l-164.8 157.6c-6.1 5.8-15.9 5.6-21.7-0.5z"/>
		</g>
	</g>
</svg>